<?xml version="1.0" encoding="UTF-8" standalone="no"?><svg xmlns="http://www.w3.org/2000/svg" xmlns:xlink="http://www.w3.org/1999/xlink" contentScriptType="application/ecmascript" contentStyleType="text/css" height="879px" preserveAspectRatio="none" style="width:2765px;height:879px;background:#F9F9F9;" version="1.1" viewBox="0 0 2765 879" width="2765px" zoomAndPan="magnify"><defs/><g><text fill="#000000" font-family="sans-serif" font-size="18" lengthAdjust="spacing" textLength="316" x="1218" y="16.708">haizol-es-data-sync Class diagram</text><!--MD5=[bb60f52581d3d32feba4621b618b52f0]
cluster explain--><polygon fill="#F9F9F9" points="2254,69.9531,2318,69.9531,2325,92.25,2395,92.25,2395,617.9531,2254,617.9531,2254,69.9531" style="stroke:#000000;stroke-width:1.5;"/><line style="stroke:#000000;stroke-width:1.5;" x1="2254" x2="2325" y1="92.25" y2="92.25"/><text fill="#000000" font-family="sans-serif" font-size="14" font-weight="bold" lengthAdjust="spacing" textLength="58" x="2258" y="84.9482">explain</text><!--MD5=[a2de098b6557a62fce489bd610a3b432]
cluster com.haizol.es.data.common.sync--><polygon fill="#F9F9F9" points="16,26.9531,292,26.9531,299,49.25,2230,49.25,2230,298.4531,16,298.4531,16,26.9531" style="stroke:#000000;stroke-width:1.5;"/><line style="stroke:#000000;stroke-width:1.5;" x1="16" x2="299" y1="49.25" y2="49.25"/><text fill="#000000" font-family="sans-serif" font-size="14" font-weight="bold" lengthAdjust="spacing" textLength="270" x="20" y="41.9482">com.haizol.es.data.common.sync</text><!--MD5=[adec9b6e6355df388ab0833f2ec1a905]
cluster com.haizol.es.data.common.sync.model--><polygon fill="#F9F9F9" points="1866,69.9531,2196,69.9531,2203,92.25,2206,92.25,2206,168.9531,1866,168.9531,1866,69.9531" style="stroke:#000000;stroke-width:1.5;"/><line style="stroke:#000000;stroke-width:1.5;" x1="1866" x2="2203" y1="92.25" y2="92.25"/><text fill="#000000" font-family="sans-serif" font-size="14" font-weight="bold" lengthAdjust="spacing" textLength="324" x="1870" y="84.9482">com.haizol.es.data.common.sync.model</text><!--MD5=[1548664988c009e278a808247a258d50]
cluster org.springframework.beans.factory--><polygon fill="#F9F9F9" points="726,69.9531,1020,69.9531,1027,92.25,1030,92.25,1030,168.9531,726,168.9531,726,69.9531" style="stroke:#000000;stroke-width:1.5;"/><line style="stroke:#000000;stroke-width:1.5;" x1="726" x2="1027" y1="92.25" y2="92.25"/><text fill="#000000" font-family="sans-serif" font-size="14" font-weight="bold" lengthAdjust="spacing" textLength="288" x="730" y="84.9482">org.springframework.beans.factory</text><!--MD5=[f610fc1e8f1c6398933b72572d232d89]
cluster com.haizol.data.sync--><polygon fill="#F9F9F9" points="207,322.4531,386,322.4531,393,344.75,2180,344.75,2180,488.4531,207,488.4531,207,322.4531" style="stroke:#000000;stroke-width:1.5;"/><line style="stroke:#000000;stroke-width:1.5;" x1="207" x2="393" y1="344.75" y2="344.75"/><text fill="#000000" font-family="sans-serif" font-size="14" font-weight="bold" lengthAdjust="spacing" textLength="173" x="211" y="337.4482">com.haizol.data.sync</text><!--MD5=[9fbe5fd071dc368688c592532986b676]
cluster com.haizol.data.sync.entity--><polygon fill="#F9F9F9" points="1913,365.4531,2146,365.4531,2153,387.75,2156,387.75,2156,464.4531,1913,464.4531,1913,365.4531" style="stroke:#000000;stroke-width:1.5;"/><line style="stroke:#000000;stroke-width:1.5;" x1="1913" x2="2153" y1="387.75" y2="387.75"/><text fill="#000000" font-family="sans-serif" font-size="14" font-weight="bold" lengthAdjust="spacing" textLength="227" x="1917" y="380.4482">com.haizol.data.sync.entity</text><!--MD5=[0b7312b153d3e8412601e04b2defb186]
cluster sample--><polygon fill="#F9F9F9" points="438,512.4531,502,512.4531,509,534.75,1239,534.75,1239,872.9531,438,872.9531,438,512.4531" style="stroke:#000000;stroke-width:1.5;"/><line style="stroke:#000000;stroke-width:1.5;" x1="438" x2="509" y1="534.75" y2="534.75"/><text fill="#000000" font-family="sans-serif" font-size="14" font-weight="bold" lengthAdjust="spacing" textLength="58" x="442" y="527.4482">sample</text><!--MD5=[2d5b42ae914593853f9b3491494eb180]
cluster com.haizol.common.system.mq--><polygon fill="#F9F9F9" points="2447,69.9531,2709,69.9531,2716,92.25,2719,92.25,2719,168.9531,2447,168.9531,2447,69.9531" style="stroke:#000000;stroke-width:1.5;"/><line style="stroke:#000000;stroke-width:1.5;" x1="2447" x2="2716" y1="92.25" y2="92.25"/><text fill="#000000" font-family="sans-serif" font-size="14" font-weight="bold" lengthAdjust="spacing" textLength="256" x="2451" y="84.9482">com.haizol.common.system.mq</text><!--MD5=[469ae388e38fc44f8b7fe8b59f998a7b]
cluster com.haizol.es.data.common.sync.mq--><polygon fill="#F9F9F9" points="2432,192.9531,2738,192.9531,2745,215.25,2748,215.25,2748,291.9531,2432,291.9531,2432,192.9531" style="stroke:#000000;stroke-width:1.5;"/><line style="stroke:#000000;stroke-width:1.5;" x1="2432" x2="2745" y1="215.25" y2="215.25"/><text fill="#000000" font-family="sans-serif" font-size="14" font-weight="bold" lengthAdjust="spacing" textLength="300" x="2436" y="207.9482">com.haizol.es.data.common.sync.mq</text><!--MD5=[d4dd9f4261b13bfc147abe197b747910]
cluster com.haizol.data.sync.mq--><polygon fill="#F9F9F9" points="2463,365.4531,2672,365.4531,2679,387.75,2703,387.75,2703,611.4531,2463,611.4531,2463,365.4531" style="stroke:#000000;stroke-width:1.5;"/><line style="stroke:#000000;stroke-width:1.5;" x1="2463" x2="2679" y1="387.75" y2="387.75"/><text fill="#000000" font-family="sans-serif" font-size="14" font-weight="bold" lengthAdjust="spacing" textLength="203" x="2467" y="380.4482">com.haizol.data.sync.mq</text><!--MD5=[ca66430013dec83b1dbf950cee73fbca]
class ClassA--><rect fill="#FEFECE" height="48" id="ClassA" rx="3.5" ry="3.5" style="stroke:#A80036;stroke-width:1.5;" width="72" x="2307" y="104.9531"/><ellipse cx="2322" cy="120.9531" fill="#ADD1B2" rx="11" ry="11" style="stroke:#A80036;stroke-width:1.0;"/><path d="M2324.3438,116.625 C2323.4063,116.1875 2322.8125,116.0469 2321.9375,116.0469 C2319.3125,116.0469 2317.3125,118.125 2317.3125,120.8438 L2317.3125,121.9688 C2317.3125,124.5469 2319.4219,126.4375 2322.3125,126.4375 C2323.5313,126.4375 2324.6875,126.1406 2325.4375,125.5938 C2326.0156,125.1875 2326.3438,124.7344 2326.3438,124.3438 C2326.3438,123.8906 2325.9531,123.5 2325.4844,123.5 C2325.2656,123.5 2325.0625,123.5781 2324.875,123.7656 C2324.4219,124.25 2324.4219,124.25 2324.2344,124.3438 C2323.8125,124.6094 2323.125,124.7344 2322.3594,124.7344 C2320.3125,124.7344 2319.0156,123.6406 2319.0156,121.9375 L2319.0156,120.8438 C2319.0156,119.0625 2320.2656,117.75 2322,117.75 C2322.5781,117.75 2323.1875,117.9063 2323.6563,118.1563 C2324.1406,118.4375 2324.3125,118.6563 2324.4063,119.0625 C2324.4688,119.4688 2324.5,119.5938 2324.6406,119.7188 C2324.7813,119.8594 2325.0156,119.9688 2325.2344,119.9688 C2325.5,119.9688 2325.7656,119.8281 2325.9375,119.6094 C2326.0469,119.4531 2326.0781,119.2656 2326.0781,118.8438 L2326.0781,117.4219 C2326.0781,116.9844 2326.0625,116.8594 2325.9688,116.7031 C2325.8125,116.4375 2325.5313,116.2969 2325.2344,116.2969 C2324.9375,116.2969 2324.7344,116.3906 2324.5156,116.7031 L2324.3438,116.625 Z " fill="#000000"/><text fill="#000000" font-family="sans-serif" font-size="12" lengthAdjust="spacing" textLength="40" x="2336" y="125.1074">ClassA</text><line style="stroke:#A80036;stroke-width:1.5;" x1="2308" x2="2378" y1="136.9531" y2="136.9531"/><line style="stroke:#A80036;stroke-width:1.5;" x1="2308" x2="2378" y1="144.9531" y2="144.9531"/><!--MD5=[bec7b9779c4af2a63aafd425c74f388a]
class ClassB--><rect fill="#FEFECE" height="48" id="ClassB" rx="3.5" ry="3.5" style="stroke:#A80036;stroke-width:1.5;" width="72" x="2307" y="400.4531"/><ellipse cx="2322" cy="416.4531" fill="#ADD1B2" rx="11" ry="11" style="stroke:#A80036;stroke-width:1.0;"/><path d="M2324.3438,412.125 C2323.4063,411.6875 2322.8125,411.5469 2321.9375,411.5469 C2319.3125,411.5469 2317.3125,413.625 2317.3125,416.3438 L2317.3125,417.4688 C2317.3125,420.0469 2319.4219,421.9375 2322.3125,421.9375 C2323.5313,421.9375 2324.6875,421.6406 2325.4375,421.0938 C2326.0156,420.6875 2326.3438,420.2344 2326.3438,419.8438 C2326.3438,419.3906 2325.9531,419 2325.4844,419 C2325.2656,419 2325.0625,419.0781 2324.875,419.2656 C2324.4219,419.75 2324.4219,419.75 2324.2344,419.8438 C2323.8125,420.1094 2323.125,420.2344 2322.3594,420.2344 C2320.3125,420.2344 2319.0156,419.1406 2319.0156,417.4375 L2319.0156,416.3438 C2319.0156,414.5625 2320.2656,413.25 2322,413.25 C2322.5781,413.25 2323.1875,413.4063 2323.6563,413.6563 C2324.1406,413.9375 2324.3125,414.1563 2324.4063,414.5625 C2324.4688,414.9688 2324.5,415.0938 2324.6406,415.2188 C2324.7813,415.3594 2325.0156,415.4688 2325.2344,415.4688 C2325.5,415.4688 2325.7656,415.3281 2325.9375,415.1094 C2326.0469,414.9531 2326.0781,414.7656 2326.0781,414.3438 L2326.0781,412.9219 C2326.0781,412.4844 2326.0625,412.3594 2325.9688,412.2031 C2325.8125,411.9375 2325.5313,411.7969 2325.2344,411.7969 C2324.9375,411.7969 2324.7344,411.8906 2324.5156,412.2031 L2324.3438,412.125 Z " fill="#000000"/><text fill="#000000" font-family="sans-serif" font-size="12" lengthAdjust="spacing" textLength="40" x="2336" y="420.6074">ClassB</text><line style="stroke:#A80036;stroke-width:1.5;" x1="2308" x2="2378" y1="432.4531" y2="432.4531"/><line style="stroke:#A80036;stroke-width:1.5;" x1="2308" x2="2378" y1="440.4531" y2="440.4531"/><!--MD5=[b03afd66daa9de8ca737fb8faa5a3f04]
class ClassC--><rect codeLine="8" fill="#FEFECE" height="48" id="ClassC" rx="3.5" ry="3.5" style="stroke:#A80036;stroke-width:1.5;" width="70" x="2270" y="227.9531"/><ellipse cx="2285" cy="243.9531" fill="#B4A7E5" rx="11" ry="11" style="stroke:#A80036;stroke-width:1.0;"/><path d="M2285.9531,240.7344 L2287.6719,240.7344 C2288.0625,240.7344 2288.25,240.7031 2288.375,240.625 C2288.6406,240.4688 2288.7813,240.1875 2288.7813,239.8906 C2288.7813,239.625 2288.6719,239.3594 2288.4375,239.1875 C2288.2656,239.0781 2288.125,239.0469 2287.6719,239.0469 L2282.5313,239.0469 C2282.0938,239.0469 2281.9688,239.0625 2281.8125,239.1563 C2281.5625,239.3125 2281.4063,239.6094 2281.4063,239.8906 C2281.4063,240.1719 2281.5469,240.4219 2281.7656,240.5938 C2281.9219,240.7031 2282.1094,240.7344 2282.5313,240.7344 L2284.25,240.7344 L2284.25,247.25 L2282.5313,247.25 C2282.0938,247.25 2281.9688,247.2656 2281.8125,247.375 C2281.5625,247.5313 2281.4063,247.8125 2281.4063,248.1094 C2281.4063,248.3594 2281.5469,248.625 2281.7656,248.7813 C2281.9219,248.9063 2282.125,248.9531 2282.5313,248.9531 L2287.6719,248.9531 C2288.4219,248.9531 2288.7813,248.6719 2288.7813,248.1094 C2288.7813,247.8281 2288.6719,247.5781 2288.4375,247.4063 C2288.2656,247.2813 2288.125,247.25 2287.6719,247.25 L2285.9531,247.25 L2285.9531,240.7344 Z " fill="#000000"/><text fill="#000000" font-family="sans-serif" font-size="12" font-style="italic" lengthAdjust="spacing" textLength="38" x="2299" y="248.1074">ClassC</text><line style="stroke:#A80036;stroke-width:1.5;" x1="2271" x2="2339" y1="259.9531" y2="259.9531"/><line style="stroke:#A80036;stroke-width:1.5;" x1="2271" x2="2339" y1="267.9531" y2="267.9531"/><!--MD5=[b55f399e6860becffc2451c389c131ed]
class ClassD--><rect fill="#FEFECE" height="60.8047" id="ClassD" rx="3.5" ry="3.5" style="stroke:#A80036;stroke-width:1.5;" width="107" x="2270.5" y="540.9531"/><ellipse cx="2300.8" cy="556.9531" fill="#ADD1B2" rx="11" ry="11" style="stroke:#A80036;stroke-width:1.0;"/><path d="M2303.1438,552.625 C2302.2063,552.1875 2301.6125,552.0469 2300.7375,552.0469 C2298.1125,552.0469 2296.1125,554.125 2296.1125,556.8438 L2296.1125,557.9688 C2296.1125,560.5469 2298.2219,562.4375 2301.1125,562.4375 C2302.3313,562.4375 2303.4875,562.1406 2304.2375,561.5938 C2304.8156,561.1875 2305.1438,560.7344 2305.1438,560.3438 C2305.1438,559.8906 2304.7531,559.5 2304.2844,559.5 C2304.0656,559.5 2303.8625,559.5781 2303.675,559.7656 C2303.2219,560.25 2303.2219,560.25 2303.0344,560.3438 C2302.6125,560.6094 2301.925,560.7344 2301.1594,560.7344 C2299.1125,560.7344 2297.8156,559.6406 2297.8156,557.9375 L2297.8156,556.8438 C2297.8156,555.0625 2299.0656,553.75 2300.8,553.75 C2301.3781,553.75 2301.9875,553.9063 2302.4563,554.1563 C2302.9406,554.4375 2303.1125,554.6563 2303.2063,555.0625 C2303.2688,555.4688 2303.3,555.5938 2303.4406,555.7188 C2303.5813,555.8594 2303.8156,555.9688 2304.0344,555.9688 C2304.3,555.9688 2304.5656,555.8281 2304.7375,555.6094 C2304.8469,555.4531 2304.8781,555.2656 2304.8781,554.8438 L2304.8781,553.4219 C2304.8781,552.9844 2304.8625,552.8594 2304.7688,552.7031 C2304.6125,552.4375 2304.3313,552.2969 2304.0344,552.2969 C2303.7375,552.2969 2303.5344,552.3906 2303.3156,552.7031 L2303.1438,552.625 Z " fill="#000000"/><text fill="#000000" font-family="sans-serif" font-size="12" lengthAdjust="spacing" textLength="41" x="2318.2" y="561.1074">ClassD</text><line style="stroke:#A80036;stroke-width:1.5;" x1="2271.5" x2="2376.5" y1="572.9531" y2="572.9531"/><rect fill="none" height="6" style="stroke:#C82930;stroke-width:1.0;" width="6" x="2278.5" y="580.9531"/><text fill="#000000" font-family="sans-serif" font-size="11" lengthAdjust="spacing" textLength="81" x="2290.5" y="587.1636">ClassB classB;</text><line style="stroke:#A80036;stroke-width:1.5;" x1="2271.5" x2="2376.5" y1="593.7578" y2="593.7578"/><!--MD5=[1076d0a15020986c75b4c413bceb44a1]
class FullIndexQuery--><rect codeLine="21" fill="#FEFECE" height="48" id="FullIndexQuery" rx="3.5" ry="3.5" style="stroke:#A80036;stroke-width:1.5;" width="280" x="1251" y="104.9531"/><ellipse cx="1266" cy="120.9531" fill="#B4A7E5" rx="11" ry="11" style="stroke:#A80036;stroke-width:1.0;"/><path d="M1266.9531,117.7344 L1268.6719,117.7344 C1269.0625,117.7344 1269.25,117.7031 1269.375,117.625 C1269.6406,117.4688 1269.7813,117.1875 1269.7813,116.8906 C1269.7813,116.625 1269.6719,116.3594 1269.4375,116.1875 C1269.2656,116.0781 1269.125,116.0469 1268.6719,116.0469 L1263.5313,116.0469 C1263.0938,116.0469 1262.9688,116.0625 1262.8125,116.1563 C1262.5625,116.3125 1262.4063,116.6094 1262.4063,116.8906 C1262.4063,117.1719 1262.5469,117.4219 1262.7656,117.5938 C1262.9219,117.7031 1263.1094,117.7344 1263.5313,117.7344 L1265.25,117.7344 L1265.25,124.25 L1263.5313,124.25 C1263.0938,124.25 1262.9688,124.2656 1262.8125,124.375 C1262.5625,124.5313 1262.4063,124.8125 1262.4063,125.1094 C1262.4063,125.3594 1262.5469,125.625 1262.7656,125.7813 C1262.9219,125.9063 1263.125,125.9531 1263.5313,125.9531 L1268.6719,125.9531 C1269.4219,125.9531 1269.7813,125.6719 1269.7813,125.1094 C1269.7813,124.8281 1269.6719,124.5781 1269.4375,124.4063 C1269.2656,124.2813 1269.125,124.25 1268.6719,124.25 L1266.9531,124.25 L1266.9531,117.7344 Z " fill="#000000"/><text fill="#000000" font-family="sans-serif" font-size="12" font-style="italic" lengthAdjust="spacing" textLength="91" x="1280" y="125.1074">FullIndexQuery</text><rect fill="#F9F9F9" height="15.9688" style="stroke:#000000;stroke-width:1.0;stroke-dasharray:2.0,2.0;" width="155" x="1379" y="101.9531"/><text fill="#000000" font-family="sans-serif" font-size="12" font-style="italic" lengthAdjust="spacing" textLength="153" x="1380" y="114.0918">T extends FullIndexModel</text><line style="stroke:#A80036;stroke-width:1.5;" x1="1252" x2="1530" y1="136.9531" y2="136.9531"/><line style="stroke:#A80036;stroke-width:1.5;" x1="1252" x2="1530" y1="144.9531" y2="144.9531"/><!--MD5=[0fdbbc23605304233f14233b7612d2e9]
class HaizolHandlerThreadWorker--><rect codeLine="22" fill="#FEFECE" height="48" id="HaizolHandlerThreadWorker" rx="3.5" ry="3.5" style="stroke:#A80036;stroke-width:1.5;" width="199" x="510.5" y="104.9531"/><ellipse cx="525.5" cy="120.9531" fill="#B4A7E5" rx="11" ry="11" style="stroke:#A80036;stroke-width:1.0;"/><path d="M526.4531,117.7344 L528.1719,117.7344 C528.5625,117.7344 528.75,117.7031 528.875,117.625 C529.1406,117.4688 529.2813,117.1875 529.2813,116.8906 C529.2813,116.625 529.1719,116.3594 528.9375,116.1875 C528.7656,116.0781 528.625,116.0469 528.1719,116.0469 L523.0313,116.0469 C522.5938,116.0469 522.4688,116.0625 522.3125,116.1563 C522.0625,116.3125 521.9063,116.6094 521.9063,116.8906 C521.9063,117.1719 522.0469,117.4219 522.2656,117.5938 C522.4219,117.7031 522.6094,117.7344 523.0313,117.7344 L524.75,117.7344 L524.75,124.25 L523.0313,124.25 C522.5938,124.25 522.4688,124.2656 522.3125,124.375 C522.0625,124.5313 521.9063,124.8125 521.9063,125.1094 C521.9063,125.3594 522.0469,125.625 522.2656,125.7813 C522.4219,125.9063 522.625,125.9531 523.0313,125.9531 L528.1719,125.9531 C528.9219,125.9531 529.2813,125.6719 529.2813,125.1094 C529.2813,124.8281 529.1719,124.5781 528.9375,124.4063 C528.7656,124.2813 528.625,124.25 528.1719,124.25 L526.4531,124.25 L526.4531,117.7344 Z " fill="#000000"/><text fill="#000000" font-family="sans-serif" font-size="12" font-style="italic" lengthAdjust="spacing" textLength="167" x="539.5" y="125.1074">HaizolHandlerThreadWorker</text><line style="stroke:#A80036;stroke-width:1.5;" x1="511.5" x2="708.5" y1="136.9531" y2="136.9531"/><line style="stroke:#A80036;stroke-width:1.5;" x1="511.5" x2="708.5" y1="144.9531" y2="144.9531"/><!--MD5=[f9fba86d25ec653c778ded0280e65c33]
class HaizolSyncBaseMapper--><rect codeLine="23" fill="#FEFECE" height="48" id="HaizolSyncBaseMapper" rx="3.5" ry="3.5" style="stroke:#A80036;stroke-width:1.5;" width="170" x="1046" y="104.9531"/><ellipse cx="1061" cy="120.9531" fill="#B4A7E5" rx="11" ry="11" style="stroke:#A80036;stroke-width:1.0;"/><path d="M1061.9531,117.7344 L1063.6719,117.7344 C1064.0625,117.7344 1064.25,117.7031 1064.375,117.625 C1064.6406,117.4688 1064.7813,117.1875 1064.7813,116.8906 C1064.7813,116.625 1064.6719,116.3594 1064.4375,116.1875 C1064.2656,116.0781 1064.125,116.0469 1063.6719,116.0469 L1058.5313,116.0469 C1058.0938,116.0469 1057.9688,116.0625 1057.8125,116.1563 C1057.5625,116.3125 1057.4063,116.6094 1057.4063,116.8906 C1057.4063,117.1719 1057.5469,117.4219 1057.7656,117.5938 C1057.9219,117.7031 1058.1094,117.7344 1058.5313,117.7344 L1060.25,117.7344 L1060.25,124.25 L1058.5313,124.25 C1058.0938,124.25 1057.9688,124.2656 1057.8125,124.375 C1057.5625,124.5313 1057.4063,124.8125 1057.4063,125.1094 C1057.4063,125.3594 1057.5469,125.625 1057.7656,125.7813 C1057.9219,125.9063 1058.125,125.9531 1058.5313,125.9531 L1063.6719,125.9531 C1064.4219,125.9531 1064.7813,125.6719 1064.7813,125.1094 C1064.7813,124.8281 1064.6719,124.5781 1064.4375,124.4063 C1064.2656,124.2813 1064.125,124.25 1063.6719,124.25 L1061.9531,124.25 L1061.9531,117.7344 Z " fill="#000000"/><text fill="#000000" font-family="sans-serif" font-size="12" font-style="italic" lengthAdjust="spacing" textLength="138" x="1075" y="125.1074">HaizolSyncBaseMapper</text><line style="stroke:#A80036;stroke-width:1.5;" x1="1047" x2="1215" y1="136.9531" y2="136.9531"/><line style="stroke:#A80036;stroke-width:1.5;" x1="1047" x2="1215" y1="144.9531" y2="144.9531"/><!--MD5=[3e2ca6da30a209277a7b36fdcc5c409c]
class BaseSyncController--><rect codeLine="25" fill="#FEFECE" height="60.8047" id="BaseSyncController" rx="3.5" ry="3.5" style="stroke:#A80036;stroke-width:1.5;" width="262" x="95" y="221.4531"/><ellipse cx="163.75" cy="237.4531" fill="#A9DCDF" rx="11" ry="11" style="stroke:#A80036;stroke-width:1.0;"/><path d="M165.8281,239.2656 L166.2188,240.25 L165.8281,240.25 C165.375,240.25 165.2656,240.2656 165.1094,240.375 C164.8594,240.5313 164.7031,240.8125 164.7031,241.1094 C164.7031,241.375 164.8438,241.625 165.0625,241.7813 C165.2031,241.9063 165.4063,241.9531 165.8281,241.9531 L168.1875,241.9531 C168.5469,241.9531 168.7656,241.9219 168.9063,241.8281 C169.1563,241.6875 169.3125,241.3906 169.3125,241.1094 C169.3125,240.8281 169.1719,240.5781 168.9531,240.4219 C168.7813,240.2813 168.625,240.25 168.1563,240.25 L164.7656,232.0469 L161.0938,232.0469 C160.6406,232.0469 160.5156,232.0625 160.3594,232.1563 C160.1094,232.3281 159.9531,232.6094 159.9531,232.8906 C159.9531,233.1719 160.0938,233.4219 160.3125,233.5938 C160.4844,233.7031 160.6563,233.7344 161.0938,233.7344 L162.1719,233.7344 L159.5313,240.25 C159.1094,240.25 158.9531,240.2656 158.7969,240.375 C158.5469,240.5313 158.3906,240.8125 158.3906,241.1094 C158.3906,241.6719 158.7656,241.9531 159.5156,241.9531 L161.7813,241.9531 C162.1406,241.9531 162.3594,241.9219 162.4844,241.8281 C162.75,241.6875 162.8906,241.3906 162.8906,241.1094 C162.8906,240.8281 162.7656,240.5781 162.5469,240.4063 C162.375,240.2813 162.2344,240.25 161.7813,240.25 L161.3906,240.25 L161.7813,239.2656 L165.8281,239.2656 Z M165.125,237.5625 L162.4531,237.5625 L163.7969,234.2969 L165.125,237.5625 Z " fill="#000000"/><text fill="#000000" font-family="sans-serif" font-size="12" font-style="italic" lengthAdjust="spacing" textLength="116" x="184.25" y="241.6074">BaseSyncController</text><line style="stroke:#A80036;stroke-width:1.5;" x1="96" x2="356" y1="253.4531" y2="253.4531"/><line style="stroke:#A80036;stroke-width:1.5;" x1="96" x2="356" y1="261.4531" y2="261.4531"/><polygon fill="#FFFF44" points="106,267.4531,110,271.4531,106,275.4531,102,271.4531" style="stroke:#B38D22;stroke-width:1.0;"/><text fill="#000000" font-family="sans-serif" font-size="11" lengthAdjust="spacing" textLength="236" x="115" y="275.6636">EsSyncHandler&lt;?&gt; currentSyncHandler();</text><!--MD5=[b24cee731402474d9959e11fe00214a4]
class EsSyncWebservice--><rect fill="#FEFECE" height="48" id="EsSyncWebservice" rx="3.5" ry="3.5" style="stroke:#A80036;stroke-width:1.5;" width="145" x="32.5" y="104.9531"/><ellipse cx="47.5" cy="120.9531" fill="#B4A7E5" rx="11" ry="11" style="stroke:#A80036;stroke-width:1.0;"/><path d="M48.4531,117.7344 L50.1719,117.7344 C50.5625,117.7344 50.75,117.7031 50.875,117.625 C51.1406,117.4688 51.2813,117.1875 51.2813,116.8906 C51.2813,116.625 51.1719,116.3594 50.9375,116.1875 C50.7656,116.0781 50.625,116.0469 50.1719,116.0469 L45.0313,116.0469 C44.5938,116.0469 44.4688,116.0625 44.3125,116.1563 C44.0625,116.3125 43.9063,116.6094 43.9063,116.8906 C43.9063,117.1719 44.0469,117.4219 44.2656,117.5938 C44.4219,117.7031 44.6094,117.7344 45.0313,117.7344 L46.75,117.7344 L46.75,124.25 L45.0313,124.25 C44.5938,124.25 44.4688,124.2656 44.3125,124.375 C44.0625,124.5313 43.9063,124.8125 43.9063,125.1094 C43.9063,125.3594 44.0469,125.625 44.2656,125.7813 C44.4219,125.9063 44.625,125.9531 45.0313,125.9531 L50.1719,125.9531 C50.9219,125.9531 51.2813,125.6719 51.2813,125.1094 C51.2813,124.8281 51.1719,124.5781 50.9375,124.4063 C50.7656,124.2813 50.625,124.25 50.1719,124.25 L48.4531,124.25 L48.4531,117.7344 Z " fill="#000000"/><text fill="#000000" font-family="sans-serif" font-size="12" font-style="italic" lengthAdjust="spacing" textLength="113" x="61.5" y="125.1074">EsSyncWebservice</text><line style="stroke:#A80036;stroke-width:1.5;" x1="33.5" x2="176.5" y1="136.9531" y2="136.9531"/><line style="stroke:#A80036;stroke-width:1.5;" x1="33.5" x2="176.5" y1="144.9531" y2="144.9531"/><!--MD5=[d0613c4d577453f547c919a87920fe1d]
class EsSyncHandler--><rect codeLine="29" fill="#FEFECE" height="48" id="EsSyncHandler" rx="3.5" ry="3.5" style="stroke:#A80036;stroke-width:1.5;" width="283" x="1566.5" y="104.9531"/><ellipse cx="1581.5" cy="120.9531" fill="#A9DCDF" rx="11" ry="11" style="stroke:#A80036;stroke-width:1.0;"/><path d="M1583.5781,122.7656 L1583.9688,123.75 L1583.5781,123.75 C1583.125,123.75 1583.0156,123.7656 1582.8594,123.875 C1582.6094,124.0313 1582.4531,124.3125 1582.4531,124.6094 C1582.4531,124.875 1582.5938,125.125 1582.8125,125.2813 C1582.9531,125.4063 1583.1563,125.4531 1583.5781,125.4531 L1585.9375,125.4531 C1586.2969,125.4531 1586.5156,125.4219 1586.6563,125.3281 C1586.9063,125.1875 1587.0625,124.8906 1587.0625,124.6094 C1587.0625,124.3281 1586.9219,124.0781 1586.7031,123.9219 C1586.5313,123.7813 1586.375,123.75 1585.9063,123.75 L1582.5156,115.5469 L1578.8438,115.5469 C1578.3906,115.5469 1578.2656,115.5625 1578.1094,115.6563 C1577.8594,115.8281 1577.7031,116.1094 1577.7031,116.3906 C1577.7031,116.6719 1577.8438,116.9219 1578.0625,117.0938 C1578.2344,117.2031 1578.4063,117.2344 1578.8438,117.2344 L1579.9219,117.2344 L1577.2813,123.75 C1576.8594,123.75 1576.7031,123.7656 1576.5469,123.875 C1576.2969,124.0313 1576.1406,124.3125 1576.1406,124.6094 C1576.1406,125.1719 1576.5156,125.4531 1577.2656,125.4531 L1579.5313,125.4531 C1579.8906,125.4531 1580.1094,125.4219 1580.2344,125.3281 C1580.5,125.1875 1580.6406,124.8906 1580.6406,124.6094 C1580.6406,124.3281 1580.5156,124.0781 1580.2969,123.9063 C1580.125,123.7813 1579.9844,123.75 1579.5313,123.75 L1579.1406,123.75 L1579.5313,122.7656 L1583.5781,122.7656 Z M1582.875,121.0625 L1580.2031,121.0625 L1581.5469,117.7969 L1582.875,121.0625 Z " fill="#000000"/><text fill="#000000" font-family="sans-serif" font-size="12" font-style="italic" lengthAdjust="spacing" textLength="91" x="1595.5" y="125.1074">EsSyncHandler</text><rect fill="#F9F9F9" height="15.9688" style="stroke:#000000;stroke-width:1.0;stroke-dasharray:2.0,2.0;" width="158" x="1694.5" y="101.9531"/><text fill="#000000" font-family="sans-serif" font-size="12" font-style="italic" lengthAdjust="spacing" textLength="156" x="1695.5" y="114.0918">M extends FullIndexModel</text><line style="stroke:#A80036;stroke-width:1.5;" x1="1567.5" x2="1848.5" y1="136.9531" y2="136.9531"/><line style="stroke:#A80036;stroke-width:1.5;" x1="1567.5" x2="1848.5" y1="144.9531" y2="144.9531"/><!--MD5=[ae788ade6274b0d3b49b1832f9953d39]
class HaizolQuery--><rect codeLine="36" fill="#FEFECE" height="48" id="HaizolQuery" rx="3.5" ry="3.5" style="stroke:#A80036;stroke-width:1.5;" width="263" x="212.5" y="104.9531"/><ellipse cx="227.5" cy="120.9531" fill="#B4A7E5" rx="11" ry="11" style="stroke:#A80036;stroke-width:1.0;"/><path d="M228.4531,117.7344 L230.1719,117.7344 C230.5625,117.7344 230.75,117.7031 230.875,117.625 C231.1406,117.4688 231.2813,117.1875 231.2813,116.8906 C231.2813,116.625 231.1719,116.3594 230.9375,116.1875 C230.7656,116.0781 230.625,116.0469 230.1719,116.0469 L225.0313,116.0469 C224.5938,116.0469 224.4688,116.0625 224.3125,116.1563 C224.0625,116.3125 223.9063,116.6094 223.9063,116.8906 C223.9063,117.1719 224.0469,117.4219 224.2656,117.5938 C224.4219,117.7031 224.6094,117.7344 225.0313,117.7344 L226.75,117.7344 L226.75,124.25 L225.0313,124.25 C224.5938,124.25 224.4688,124.2656 224.3125,124.375 C224.0625,124.5313 223.9063,124.8125 223.9063,125.1094 C223.9063,125.3594 224.0469,125.625 224.2656,125.7813 C224.4219,125.9063 224.625,125.9531 225.0313,125.9531 L230.1719,125.9531 C230.9219,125.9531 231.2813,125.6719 231.2813,125.1094 C231.2813,124.8281 231.1719,124.5781 230.9375,124.4063 C230.7656,124.2813 230.625,124.25 230.1719,124.25 L228.4531,124.25 L228.4531,117.7344 Z " fill="#000000"/><text fill="#000000" font-family="sans-serif" font-size="12" font-style="italic" lengthAdjust="spacing" textLength="71" x="241.5" y="125.1074">HaizolQuery</text><rect fill="#F9F9F9" height="15.9688" style="stroke:#000000;stroke-width:1.0;stroke-dasharray:2.0,2.0;" width="158" x="320.5" y="101.9531"/><text fill="#000000" font-family="sans-serif" font-size="12" font-style="italic" lengthAdjust="spacing" textLength="156" x="321.5" y="114.0918">M extends FullIndexModel</text><line style="stroke:#A80036;stroke-width:1.5;" x1="213.5" x2="474.5" y1="136.9531" y2="136.9531"/><line style="stroke:#A80036;stroke-width:1.5;" x1="213.5" x2="474.5" y1="144.9531" y2="144.9531"/><!--MD5=[3983de103430d6797ec6c301803ddaab]
class AbstractHaizolQuery--><rect codeLine="43" fill="#FEFECE" height="60.8047" id="AbstractHaizolQuery" rx="3.5" ry="3.5" style="stroke:#A80036;stroke-width:1.5;" width="518" x="403" y="221.4531"/><ellipse cx="516.75" cy="237.4531" fill="#A9DCDF" rx="11" ry="11" style="stroke:#A80036;stroke-width:1.0;"/><path d="M518.8281,239.2656 L519.2188,240.25 L518.8281,240.25 C518.375,240.25 518.2656,240.2656 518.1094,240.375 C517.8594,240.5313 517.7031,240.8125 517.7031,241.1094 C517.7031,241.375 517.8438,241.625 518.0625,241.7813 C518.2031,241.9063 518.4063,241.9531 518.8281,241.9531 L521.1875,241.9531 C521.5469,241.9531 521.7656,241.9219 521.9063,241.8281 C522.1563,241.6875 522.3125,241.3906 522.3125,241.1094 C522.3125,240.8281 522.1719,240.5781 521.9531,240.4219 C521.7813,240.2813 521.625,240.25 521.1563,240.25 L517.7656,232.0469 L514.0938,232.0469 C513.6406,232.0469 513.5156,232.0625 513.3594,232.1563 C513.1094,232.3281 512.9531,232.6094 512.9531,232.8906 C512.9531,233.1719 513.0938,233.4219 513.3125,233.5938 C513.4844,233.7031 513.6563,233.7344 514.0938,233.7344 L515.1719,233.7344 L512.5313,240.25 C512.1094,240.25 511.9531,240.2656 511.7969,240.375 C511.5469,240.5313 511.3906,240.8125 511.3906,241.1094 C511.3906,241.6719 511.7656,241.9531 512.5156,241.9531 L514.7813,241.9531 C515.1406,241.9531 515.3594,241.9219 515.4844,241.8281 C515.75,241.6875 515.8906,241.3906 515.8906,241.1094 C515.8906,240.8281 515.7656,240.5781 515.5469,240.4063 C515.375,240.2813 515.2344,240.25 514.7813,240.25 L514.3906,240.25 L514.7813,239.2656 L518.8281,239.2656 Z M518.125,237.5625 L515.4531,237.5625 L516.7969,234.2969 L518.125,237.5625 Z " fill="#000000"/><text fill="#000000" font-family="sans-serif" font-size="12" font-style="italic" lengthAdjust="spacing" textLength="122" x="537.25" y="241.6074">AbstractHaizolQuery</text><rect fill="#F9F9F9" height="15.9688" style="stroke:#000000;stroke-width:1.0;stroke-dasharray:2.0,2.0;" width="158" x="766" y="218.4531"/><text fill="#000000" font-family="sans-serif" font-size="12" font-style="italic" lengthAdjust="spacing" textLength="156" x="767" y="230.5918">M extends FullIndexModel</text><line style="stroke:#A80036;stroke-width:1.5;" x1="404" x2="920" y1="253.4531" y2="253.4531"/><polygon fill="none" points="414,259.4531,418,263.4531,414,267.4531,410,263.4531" style="stroke:#B38D22;stroke-width:1.0;"/><text fill="#000000" font-family="sans-serif" font-size="11" lengthAdjust="spacing" textLength="492" x="423" y="267.6636">protected List&lt;Function&lt;Map&lt;String, M&gt;, CompletableFuture&lt;Void&gt;&gt;&gt; dataServices;</text><line style="stroke:#A80036;stroke-width:1.5;" x1="404" x2="920" y1="274.2578" y2="274.2578"/><!--MD5=[3c3a6959d91847b0afbbd55b32294bb2]
class FullIndexModel--><rect codeLine="16" fill="#FEFECE" height="48" id="FullIndexModel" rx="3.5" ry="3.5" style="stroke:#A80036;stroke-width:1.5;" width="122" x="1975" y="104.9531"/><ellipse cx="1990" cy="120.9531" fill="#ADD1B2" rx="11" ry="11" style="stroke:#A80036;stroke-width:1.0;"/><path d="M1992.3438,116.625 C1991.4063,116.1875 1990.8125,116.0469 1989.9375,116.0469 C1987.3125,116.0469 1985.3125,118.125 1985.3125,120.8438 L1985.3125,121.9688 C1985.3125,124.5469 1987.4219,126.4375 1990.3125,126.4375 C1991.5313,126.4375 1992.6875,126.1406 1993.4375,125.5938 C1994.0156,125.1875 1994.3438,124.7344 1994.3438,124.3438 C1994.3438,123.8906 1993.9531,123.5 1993.4844,123.5 C1993.2656,123.5 1993.0625,123.5781 1992.875,123.7656 C1992.4219,124.25 1992.4219,124.25 1992.2344,124.3438 C1991.8125,124.6094 1991.125,124.7344 1990.3594,124.7344 C1988.3125,124.7344 1987.0156,123.6406 1987.0156,121.9375 L1987.0156,120.8438 C1987.0156,119.0625 1988.2656,117.75 1990,117.75 C1990.5781,117.75 1991.1875,117.9063 1991.6563,118.1563 C1992.1406,118.4375 1992.3125,118.6563 1992.4063,119.0625 C1992.4688,119.4688 1992.5,119.5938 1992.6406,119.7188 C1992.7813,119.8594 1993.0156,119.9688 1993.2344,119.9688 C1993.5,119.9688 1993.7656,119.8281 1993.9375,119.6094 C1994.0469,119.4531 1994.0781,119.2656 1994.0781,118.8438 L1994.0781,117.4219 C1994.0781,116.9844 1994.0625,116.8594 1993.9688,116.7031 C1993.8125,116.4375 1993.5313,116.2969 1993.2344,116.2969 C1992.9375,116.2969 1992.7344,116.3906 1992.5156,116.7031 L1992.3438,116.625 Z " fill="#000000"/><text fill="#000000" font-family="sans-serif" font-size="12" lengthAdjust="spacing" textLength="90" x="2004" y="125.1074">FullIndexModel</text><line style="stroke:#A80036;stroke-width:1.5;" x1="1976" x2="2096" y1="136.9531" y2="136.9531"/><line style="stroke:#A80036;stroke-width:1.5;" x1="1976" x2="2096" y1="144.9531" y2="144.9531"/><!--MD5=[90738de24898ab4b40438cd44ef42543]
class SmartInitializingSingleton--><rect codeLine="19" fill="#FEFECE" height="48" id="SmartInitializingSingleton" rx="3.5" ry="3.5" style="stroke:#A80036;stroke-width:1.5;" width="187" x="744.5" y="104.9531"/><ellipse cx="759.5" cy="120.9531" fill="#B4A7E5" rx="11" ry="11" style="stroke:#A80036;stroke-width:1.0;"/><path d="M760.4531,117.7344 L762.1719,117.7344 C762.5625,117.7344 762.75,117.7031 762.875,117.625 C763.1406,117.4688 763.2813,117.1875 763.2813,116.8906 C763.2813,116.625 763.1719,116.3594 762.9375,116.1875 C762.7656,116.0781 762.625,116.0469 762.1719,116.0469 L757.0313,116.0469 C756.5938,116.0469 756.4688,116.0625 756.3125,116.1563 C756.0625,116.3125 755.9063,116.6094 755.9063,116.8906 C755.9063,117.1719 756.0469,117.4219 756.2656,117.5938 C756.4219,117.7031 756.6094,117.7344 757.0313,117.7344 L758.75,117.7344 L758.75,124.25 L757.0313,124.25 C756.5938,124.25 756.4688,124.2656 756.3125,124.375 C756.0625,124.5313 755.9063,124.8125 755.9063,125.1094 C755.9063,125.3594 756.0469,125.625 756.2656,125.7813 C756.4219,125.9063 756.625,125.9531 757.0313,125.9531 L762.1719,125.9531 C762.9219,125.9531 763.2813,125.6719 763.2813,125.1094 C763.2813,124.8281 763.1719,124.5781 762.9375,124.4063 C762.7656,124.2813 762.625,124.25 762.1719,124.25 L760.4531,124.25 L760.4531,117.7344 Z " fill="#000000"/><text fill="#000000" font-family="sans-serif" font-size="12" font-style="italic" lengthAdjust="spacing" textLength="155" x="773.5" y="125.1074">SmartInitializingSingleton</text><line style="stroke:#A80036;stroke-width:1.5;" x1="745.5" x2="930.5" y1="136.9531" y2="136.9531"/><line style="stroke:#A80036;stroke-width:1.5;" x1="745.5" x2="930.5" y1="144.9531" y2="144.9531"/><!--MD5=[94379f2ce0011c0c588fe05d710bedaf]
class AbstractBaseSyncController--><rect codeLine="55" fill="#FEFECE" height="60.8047" id="AbstractBaseSyncController" rx="3.5" ry="3.5" style="stroke:#A80036;stroke-width:1.5;" width="359" x="223.5" y="393.9531"/><ellipse cx="238.5" cy="409.9531" fill="#A9DCDF" rx="11" ry="11" style="stroke:#A80036;stroke-width:1.0;"/><path d="M240.5781,411.7656 L240.9688,412.75 L240.5781,412.75 C240.125,412.75 240.0156,412.7656 239.8594,412.875 C239.6094,413.0313 239.4531,413.3125 239.4531,413.6094 C239.4531,413.875 239.5938,414.125 239.8125,414.2813 C239.9531,414.4063 240.1563,414.4531 240.5781,414.4531 L242.9375,414.4531 C243.2969,414.4531 243.5156,414.4219 243.6563,414.3281 C243.9063,414.1875 244.0625,413.8906 244.0625,413.6094 C244.0625,413.3281 243.9219,413.0781 243.7031,412.9219 C243.5313,412.7813 243.375,412.75 242.9063,412.75 L239.5156,404.5469 L235.8438,404.5469 C235.3906,404.5469 235.2656,404.5625 235.1094,404.6563 C234.8594,404.8281 234.7031,405.1094 234.7031,405.3906 C234.7031,405.6719 234.8438,405.9219 235.0625,406.0938 C235.2344,406.2031 235.4063,406.2344 235.8438,406.2344 L236.9219,406.2344 L234.2813,412.75 C233.8594,412.75 233.7031,412.7656 233.5469,412.875 C233.2969,413.0313 233.1406,413.3125 233.1406,413.6094 C233.1406,414.1719 233.5156,414.4531 234.2656,414.4531 L236.5313,414.4531 C236.8906,414.4531 237.1094,414.4219 237.2344,414.3281 C237.5,414.1875 237.6406,413.8906 237.6406,413.6094 C237.6406,413.3281 237.5156,413.0781 237.2969,412.9063 C237.125,412.7813 236.9844,412.75 236.5313,412.75 L236.1406,412.75 L236.5313,411.7656 L240.5781,411.7656 Z M239.875,410.0625 L237.2031,410.0625 L238.5469,406.7969 L239.875,410.0625 Z " fill="#000000"/><text fill="#000000" font-family="sans-serif" font-size="12" font-style="italic" lengthAdjust="spacing" textLength="167" x="252.5" y="414.1074">AbstractBaseSyncController</text><rect fill="#F9F9F9" height="15.9688" style="stroke:#000000;stroke-width:1.0;stroke-dasharray:2.0,2.0;" width="158" x="427.5" y="390.9531"/><text fill="#000000" font-family="sans-serif" font-size="12" font-style="italic" lengthAdjust="spacing" textLength="156" x="428.5" y="403.0918">M extends FullIndexModel</text><line style="stroke:#A80036;stroke-width:1.5;" x1="224.5" x2="581.5" y1="425.9531" y2="425.9531"/><rect fill="none" height="6" style="stroke:#C82930;stroke-width:1.0;" width="6" x="231.5" y="433.9531"/><text fill="#000000" font-family="sans-serif" font-size="11" lengthAdjust="spacing" textLength="248" x="243.5" y="440.1636">AbstractEsSyncHandlerWorker&lt;M&gt; handler;</text><line style="stroke:#A80036;stroke-width:1.5;" x1="224.5" x2="581.5" y1="446.7578" y2="446.7578"/><!--MD5=[7c7c82fc054301b5581483c8a48f9b7a]
class AbstractEsSyncHandlerWorker--><rect codeLine="58" fill="#FEFECE" height="60.8047" id="AbstractEsSyncHandlerWorker" rx="3.5" ry="3.5" style="stroke:#A80036;stroke-width:1.5;" width="377" x="1519.5" y="393.9531"/><ellipse cx="1534.5" cy="409.9531" fill="#A9DCDF" rx="11" ry="11" style="stroke:#A80036;stroke-width:1.0;"/><path d="M1536.5781,411.7656 L1536.9688,412.75 L1536.5781,412.75 C1536.125,412.75 1536.0156,412.7656 1535.8594,412.875 C1535.6094,413.0313 1535.4531,413.3125 1535.4531,413.6094 C1535.4531,413.875 1535.5938,414.125 1535.8125,414.2813 C1535.9531,414.4063 1536.1563,414.4531 1536.5781,414.4531 L1538.9375,414.4531 C1539.2969,414.4531 1539.5156,414.4219 1539.6563,414.3281 C1539.9063,414.1875 1540.0625,413.8906 1540.0625,413.6094 C1540.0625,413.3281 1539.9219,413.0781 1539.7031,412.9219 C1539.5313,412.7813 1539.375,412.75 1538.9063,412.75 L1535.5156,404.5469 L1531.8438,404.5469 C1531.3906,404.5469 1531.2656,404.5625 1531.1094,404.6563 C1530.8594,404.8281 1530.7031,405.1094 1530.7031,405.3906 C1530.7031,405.6719 1530.8438,405.9219 1531.0625,406.0938 C1531.2344,406.2031 1531.4063,406.2344 1531.8438,406.2344 L1532.9219,406.2344 L1530.2813,412.75 C1529.8594,412.75 1529.7031,412.7656 1529.5469,412.875 C1529.2969,413.0313 1529.1406,413.3125 1529.1406,413.6094 C1529.1406,414.1719 1529.5156,414.4531 1530.2656,414.4531 L1532.5313,414.4531 C1532.8906,414.4531 1533.1094,414.4219 1533.2344,414.3281 C1533.5,414.1875 1533.6406,413.8906 1533.6406,413.6094 C1533.6406,413.3281 1533.5156,413.0781 1533.2969,412.9063 C1533.125,412.7813 1532.9844,412.75 1532.5313,412.75 L1532.1406,412.75 L1532.5313,411.7656 L1536.5781,411.7656 Z M1535.875,410.0625 L1533.2031,410.0625 L1534.5469,406.7969 L1535.875,410.0625 Z " fill="#000000"/><text fill="#000000" font-family="sans-serif" font-size="12" font-style="italic" lengthAdjust="spacing" textLength="185" x="1548.5" y="414.1074">AbstractEsSyncHandlerWorker</text><rect fill="#F9F9F9" height="15.9688" style="stroke:#000000;stroke-width:1.0;stroke-dasharray:2.0,2.0;" width="158" x="1741.5" y="390.9531"/><text fill="#000000" font-family="sans-serif" font-size="12" font-style="italic" lengthAdjust="spacing" textLength="156" x="1742.5" y="403.0918">M extends FullIndexModel</text><line style="stroke:#A80036;stroke-width:1.5;" x1="1520.5" x2="1895.5" y1="425.9531" y2="425.9531"/><rect fill="none" height="6" style="stroke:#C82930;stroke-width:1.0;" width="6" x="1527.5" y="433.9531"/><text fill="#000000" font-family="sans-serif" font-size="11" lengthAdjust="spacing" textLength="304" x="1539.5" y="440.1636">List&lt;AbstractHaizolQueryWorker&lt;T&gt;&gt; queryWorkers;</text><line style="stroke:#A80036;stroke-width:1.5;" x1="1520.5" x2="1895.5" y1="446.7578" y2="446.7578"/><!--MD5=[e5d60c3adbcc86b192d90d50563fed41]
class AbstractHaizolQueryWorker--><rect codeLine="61" fill="#FEFECE" height="60.8047" id="AbstractHaizolQueryWorker" rx="3.5" ry="3.5" style="stroke:#A80036;stroke-width:1.5;" width="407" x="1077.5" y="393.9531"/><ellipse cx="1115" cy="409.9531" fill="#A9DCDF" rx="11" ry="11" style="stroke:#A80036;stroke-width:1.0;"/><path d="M1117.0781,411.7656 L1117.4688,412.75 L1117.0781,412.75 C1116.625,412.75 1116.5156,412.7656 1116.3594,412.875 C1116.1094,413.0313 1115.9531,413.3125 1115.9531,413.6094 C1115.9531,413.875 1116.0938,414.125 1116.3125,414.2813 C1116.4531,414.4063 1116.6563,414.4531 1117.0781,414.4531 L1119.4375,414.4531 C1119.7969,414.4531 1120.0156,414.4219 1120.1563,414.3281 C1120.4063,414.1875 1120.5625,413.8906 1120.5625,413.6094 C1120.5625,413.3281 1120.4219,413.0781 1120.2031,412.9219 C1120.0313,412.7813 1119.875,412.75 1119.4063,412.75 L1116.0156,404.5469 L1112.3438,404.5469 C1111.8906,404.5469 1111.7656,404.5625 1111.6094,404.6563 C1111.3594,404.8281 1111.2031,405.1094 1111.2031,405.3906 C1111.2031,405.6719 1111.3438,405.9219 1111.5625,406.0938 C1111.7344,406.2031 1111.9063,406.2344 1112.3438,406.2344 L1113.4219,406.2344 L1110.7813,412.75 C1110.3594,412.75 1110.2031,412.7656 1110.0469,412.875 C1109.7969,413.0313 1109.6406,413.3125 1109.6406,413.6094 C1109.6406,414.1719 1110.0156,414.4531 1110.7656,414.4531 L1113.0313,414.4531 C1113.3906,414.4531 1113.6094,414.4219 1113.7344,414.3281 C1114,414.1875 1114.1406,413.8906 1114.1406,413.6094 C1114.1406,413.3281 1114.0156,413.0781 1113.7969,412.9063 C1113.625,412.7813 1113.4844,412.75 1113.0313,412.75 L1112.6406,412.75 L1113.0313,411.7656 L1117.0781,411.7656 Z M1116.375,410.0625 L1113.7031,410.0625 L1115.0469,406.7969 L1116.375,410.0625 Z " fill="#000000"/><text fill="#000000" font-family="sans-serif" font-size="12" font-style="italic" lengthAdjust="spacing" textLength="165" x="1134" y="414.1074">AbstractHaizolQueryWorker</text><rect fill="#F9F9F9" height="15.9688" style="stroke:#000000;stroke-width:1.0;stroke-dasharray:2.0,2.0;" width="158" x="1329.5" y="390.9531"/><text fill="#000000" font-family="sans-serif" font-size="12" font-style="italic" lengthAdjust="spacing" textLength="156" x="1330.5" y="403.0918">M extends FullIndexModel</text><line style="stroke:#A80036;stroke-width:1.5;" x1="1078.5" x2="1483.5" y1="425.9531" y2="425.9531"/><rect fill="none" height="6" style="stroke:#C82930;stroke-width:1.0;" width="6" x="1085.5" y="433.9531"/><text fill="#000000" font-family="sans-serif" font-size="11" lengthAdjust="spacing" textLength="381" x="1097.5" y="440.1636">List&lt;AbstractHaizolSyncBaseMapperWorker&lt;M&gt;&gt; mapperWorkers;</text><line style="stroke:#A80036;stroke-width:1.5;" x1="1078.5" x2="1483.5" y1="446.7578" y2="446.7578"/><!--MD5=[cb5eaed18e5a088f6c541e51397a7dae]
class AbstractHaizolSyncBaseMapperWorker--><rect codeLine="64" fill="#FEFECE" height="48" id="AbstractHaizolSyncBaseMapperWorker" rx="3.5" ry="3.5" style="stroke:#A80036;stroke-width:1.5;" width="424" x="618" y="400.4531"/><ellipse cx="633" cy="416.4531" fill="#B4A7E5" rx="11" ry="11" style="stroke:#A80036;stroke-width:1.0;"/><path d="M633.9531,413.2344 L635.6719,413.2344 C636.0625,413.2344 636.25,413.2031 636.375,413.125 C636.6406,412.9688 636.7813,412.6875 636.7813,412.3906 C636.7813,412.125 636.6719,411.8594 636.4375,411.6875 C636.2656,411.5781 636.125,411.5469 635.6719,411.5469 L630.5313,411.5469 C630.0938,411.5469 629.9688,411.5625 629.8125,411.6563 C629.5625,411.8125 629.4063,412.1094 629.4063,412.3906 C629.4063,412.6719 629.5469,412.9219 629.7656,413.0938 C629.9219,413.2031 630.1094,413.2344 630.5313,413.2344 L632.25,413.2344 L632.25,419.75 L630.5313,419.75 C630.0938,419.75 629.9688,419.7656 629.8125,419.875 C629.5625,420.0313 629.4063,420.3125 629.4063,420.6094 C629.4063,420.8594 629.5469,421.125 629.7656,421.2813 C629.9219,421.4063 630.125,421.4531 630.5313,421.4531 L635.6719,421.4531 C636.4219,421.4531 636.7813,421.1719 636.7813,420.6094 C636.7813,420.3281 636.6719,420.0781 636.4375,419.9063 C636.2656,419.7813 636.125,419.75 635.6719,419.75 L633.9531,419.75 L633.9531,413.2344 Z " fill="#000000"/><text fill="#000000" font-family="sans-serif" font-size="12" font-style="italic" lengthAdjust="spacing" textLength="232" x="647" y="420.6074">AbstractHaizolSyncBaseMapperWorker</text><rect fill="#F9F9F9" height="15.9688" style="stroke:#000000;stroke-width:1.0;stroke-dasharray:2.0,2.0;" width="158" x="887" y="397.4531"/><text fill="#000000" font-family="sans-serif" font-size="12" font-style="italic" lengthAdjust="spacing" textLength="156" x="888" y="409.5918">M extends FullIndexModel</text><line style="stroke:#A80036;stroke-width:1.5;" x1="619" x2="1041" y1="432.4531" y2="432.4531"/><line style="stroke:#A80036;stroke-width:1.5;" x1="619" x2="1041" y1="440.4531" y2="440.4531"/><!--MD5=[e214e41b8ac35261166338e238f9df2b]
class HaizolManageNotesModel--><rect fill="#FEFECE" height="48" id="HaizolManageNotesModel" rx="3.5" ry="3.5" style="stroke:#A80036;stroke-width:1.5;" width="188" x="1942" y="400.4531"/><ellipse cx="1957" cy="416.4531" fill="#ADD1B2" rx="11" ry="11" style="stroke:#A80036;stroke-width:1.0;"/><path d="M1959.3438,412.125 C1958.4063,411.6875 1957.8125,411.5469 1956.9375,411.5469 C1954.3125,411.5469 1952.3125,413.625 1952.3125,416.3438 L1952.3125,417.4688 C1952.3125,420.0469 1954.4219,421.9375 1957.3125,421.9375 C1958.5313,421.9375 1959.6875,421.6406 1960.4375,421.0938 C1961.0156,420.6875 1961.3438,420.2344 1961.3438,419.8438 C1961.3438,419.3906 1960.9531,419 1960.4844,419 C1960.2656,419 1960.0625,419.0781 1959.875,419.2656 C1959.4219,419.75 1959.4219,419.75 1959.2344,419.8438 C1958.8125,420.1094 1958.125,420.2344 1957.3594,420.2344 C1955.3125,420.2344 1954.0156,419.1406 1954.0156,417.4375 L1954.0156,416.3438 C1954.0156,414.5625 1955.2656,413.25 1957,413.25 C1957.5781,413.25 1958.1875,413.4063 1958.6563,413.6563 C1959.1406,413.9375 1959.3125,414.1563 1959.4063,414.5625 C1959.4688,414.9688 1959.5,415.0938 1959.6406,415.2188 C1959.7813,415.3594 1960.0156,415.4688 1960.2344,415.4688 C1960.5,415.4688 1960.7656,415.3281 1960.9375,415.1094 C1961.0469,414.9531 1961.0781,414.7656 1961.0781,414.3438 L1961.0781,412.9219 C1961.0781,412.4844 1961.0625,412.3594 1960.9688,412.2031 C1960.8125,411.9375 1960.5313,411.7969 1960.2344,411.7969 C1959.9375,411.7969 1959.7344,411.8906 1959.5156,412.2031 L1959.3438,412.125 Z " fill="#000000"/><text fill="#000000" font-family="sans-serif" font-size="12" lengthAdjust="spacing" textLength="156" x="1971" y="420.6074">HaizolManageNotesModel</text><line style="stroke:#A80036;stroke-width:1.5;" x1="1943" x2="2129" y1="432.4531" y2="432.4531"/><line style="stroke:#A80036;stroke-width:1.5;" x1="1943" x2="2129" y1="440.4531" y2="440.4531"/><!--MD5=[7c405542ab1d59162197a8cc0ab6d0e4]
class HaizolManageNotesController--><rect fill="#FEFECE" height="48" id="HaizolManageNotesController" rx="3.5" ry="3.5" style="stroke:#A80036;stroke-width:1.5;" width="210" x="454" y="547.4531"/><ellipse cx="469" cy="563.4531" fill="#ADD1B2" rx="11" ry="11" style="stroke:#A80036;stroke-width:1.0;"/><path d="M471.3438,559.125 C470.4063,558.6875 469.8125,558.5469 468.9375,558.5469 C466.3125,558.5469 464.3125,560.625 464.3125,563.3438 L464.3125,564.4688 C464.3125,567.0469 466.4219,568.9375 469.3125,568.9375 C470.5313,568.9375 471.6875,568.6406 472.4375,568.0938 C473.0156,567.6875 473.3438,567.2344 473.3438,566.8438 C473.3438,566.3906 472.9531,566 472.4844,566 C472.2656,566 472.0625,566.0781 471.875,566.2656 C471.4219,566.75 471.4219,566.75 471.2344,566.8438 C470.8125,567.1094 470.125,567.2344 469.3594,567.2344 C467.3125,567.2344 466.0156,566.1406 466.0156,564.4375 L466.0156,563.3438 C466.0156,561.5625 467.2656,560.25 469,560.25 C469.5781,560.25 470.1875,560.4063 470.6563,560.6563 C471.1406,560.9375 471.3125,561.1563 471.4063,561.5625 C471.4688,561.9688 471.5,562.0938 471.6406,562.2188 C471.7813,562.3594 472.0156,562.4688 472.2344,562.4688 C472.5,562.4688 472.7656,562.3281 472.9375,562.1094 C473.0469,561.9531 473.0781,561.7656 473.0781,561.3438 L473.0781,559.9219 C473.0781,559.4844 473.0625,559.3594 472.9688,559.2031 C472.8125,558.9375 472.5313,558.7969 472.2344,558.7969 C471.9375,558.7969 471.7344,558.8906 471.5156,559.2031 L471.3438,559.125 Z " fill="#000000"/><text fill="#000000" font-family="sans-serif" font-size="12" lengthAdjust="spacing" textLength="178" x="483" y="567.6074">HaizolManageNotesController</text><line style="stroke:#A80036;stroke-width:1.5;" x1="455" x2="663" y1="579.4531" y2="579.4531"/><line style="stroke:#A80036;stroke-width:1.5;" x1="455" x2="663" y1="587.4531" y2="587.4531"/><!--MD5=[ab0f5f3ff95890076d8574a30e6d7f16]
class HaizolManageNotesHandler--><rect fill="#FEFECE" height="73.6094" id="HaizolManageNotesHandler" rx="3.5" ry="3.5" style="stroke:#A80036;stroke-width:1.5;" width="392" x="831" y="782.9531"/><ellipse cx="939.75" cy="798.9531" fill="#ADD1B2" rx="11" ry="11" style="stroke:#A80036;stroke-width:1.0;"/><path d="M942.0938,794.625 C941.1563,794.1875 940.5625,794.0469 939.6875,794.0469 C937.0625,794.0469 935.0625,796.125 935.0625,798.8438 L935.0625,799.9688 C935.0625,802.5469 937.1719,804.4375 940.0625,804.4375 C941.2813,804.4375 942.4375,804.1406 943.1875,803.5938 C943.7656,803.1875 944.0938,802.7344 944.0938,802.3438 C944.0938,801.8906 943.7031,801.5 943.2344,801.5 C943.0156,801.5 942.8125,801.5781 942.625,801.7656 C942.1719,802.25 942.1719,802.25 941.9844,802.3438 C941.5625,802.6094 940.875,802.7344 940.1094,802.7344 C938.0625,802.7344 936.7656,801.6406 936.7656,799.9375 L936.7656,798.8438 C936.7656,797.0625 938.0156,795.75 939.75,795.75 C940.3281,795.75 940.9375,795.9063 941.4063,796.1563 C941.8906,796.4375 942.0625,796.6563 942.1563,797.0625 C942.2188,797.4688 942.25,797.5938 942.3906,797.7188 C942.5313,797.8594 942.7656,797.9688 942.9844,797.9688 C943.25,797.9688 943.5156,797.8281 943.6875,797.6094 C943.7969,797.4531 943.8281,797.2656 943.8281,796.8438 L943.8281,795.4219 C943.8281,794.9844 943.8125,794.8594 943.7188,794.7031 C943.5625,794.4375 943.2813,794.2969 942.9844,794.2969 C942.6875,794.2969 942.4844,794.3906 942.2656,794.7031 L942.0938,794.625 Z " fill="#000000"/><text fill="#000000" font-family="sans-serif" font-size="12" lengthAdjust="spacing" textLength="166" x="960.25" y="803.1074">HaizolManageNotesHandler</text><line style="stroke:#A80036;stroke-width:1.5;" x1="832" x2="1222" y1="814.9531" y2="814.9531"/><text fill="#000000" font-family="sans-serif" font-size="11" lengthAdjust="spacing" textLength="302" x="837" y="829.1636">HaizolManageNotesQuery haizolManageNotesQuery;</text><text fill="#000000" font-family="sans-serif" font-size="11" lengthAdjust="spacing" textLength="380" x="837" y="841.9683">HaizolManageRenewNotesQuery haizolManageRenewNotesQuery;</text><line style="stroke:#A80036;stroke-width:1.5;" x1="832" x2="1222" y1="848.5625" y2="848.5625"/><!--MD5=[e62cedc0589b84d1ca76bfd8cea20279]
class HaizolManageNotesQuery--><rect fill="#FEFECE" height="60.8047" id="HaizolManageNotesQuery" rx="3.5" ry="3.5" style="stroke:#A80036;stroke-width:1.5;" width="406" x="454" y="661.9531"/><ellipse cx="574.75" cy="677.9531" fill="#ADD1B2" rx="11" ry="11" style="stroke:#A80036;stroke-width:1.0;"/><path d="M577.0938,673.625 C576.1563,673.1875 575.5625,673.0469 574.6875,673.0469 C572.0625,673.0469 570.0625,675.125 570.0625,677.8438 L570.0625,678.9688 C570.0625,681.5469 572.1719,683.4375 575.0625,683.4375 C576.2813,683.4375 577.4375,683.1406 578.1875,682.5938 C578.7656,682.1875 579.0938,681.7344 579.0938,681.3438 C579.0938,680.8906 578.7031,680.5 578.2344,680.5 C578.0156,680.5 577.8125,680.5781 577.625,680.7656 C577.1719,681.25 577.1719,681.25 576.9844,681.3438 C576.5625,681.6094 575.875,681.7344 575.1094,681.7344 C573.0625,681.7344 571.7656,680.6406 571.7656,678.9375 L571.7656,677.8438 C571.7656,676.0625 573.0156,674.75 574.75,674.75 C575.3281,674.75 575.9375,674.9063 576.4063,675.1563 C576.8906,675.4375 577.0625,675.6563 577.1563,676.0625 C577.2188,676.4688 577.25,676.5938 577.3906,676.7188 C577.5313,676.8594 577.7656,676.9688 577.9844,676.9688 C578.25,676.9688 578.5156,676.8281 578.6875,676.6094 C578.7969,676.4531 578.8281,676.2656 578.8281,675.8438 L578.8281,674.4219 C578.8281,673.9844 578.8125,673.8594 578.7188,673.7031 C578.5625,673.4375 578.2813,673.2969 577.9844,673.2969 C577.6875,673.2969 577.4844,673.3906 577.2656,673.7031 L577.0938,673.625 Z " fill="#000000"/><text fill="#000000" font-family="sans-serif" font-size="12" lengthAdjust="spacing" textLength="156" x="595.25" y="682.1074">HaizolManageNotesQuery</text><line style="stroke:#A80036;stroke-width:1.5;" x1="455" x2="859" y1="693.9531" y2="693.9531"/><text fill="#000000" font-family="sans-serif" font-size="11" lengthAdjust="spacing" textLength="394" x="460" y="708.1636">HaizolManageRenewNotesMapper haizolManageRenewNotesMapper;</text><line style="stroke:#A80036;stroke-width:1.5;" x1="455" x2="859" y1="714.7578" y2="714.7578"/><!--MD5=[7d7362a3bf40ed46610871ff29e87b94]
class HaizolManageRenewNotesQuery--><rect fill="#FEFECE" height="60.8047" id="HaizolManageRenewNotesQuery" rx="3.5" ry="3.5" style="stroke:#A80036;stroke-width:1.5;" width="328" x="895" y="661.9531"/><ellipse cx="956.75" cy="677.9531" fill="#ADD1B2" rx="11" ry="11" style="stroke:#A80036;stroke-width:1.0;"/><path d="M959.0938,673.625 C958.1563,673.1875 957.5625,673.0469 956.6875,673.0469 C954.0625,673.0469 952.0625,675.125 952.0625,677.8438 L952.0625,678.9688 C952.0625,681.5469 954.1719,683.4375 957.0625,683.4375 C958.2813,683.4375 959.4375,683.1406 960.1875,682.5938 C960.7656,682.1875 961.0938,681.7344 961.0938,681.3438 C961.0938,680.8906 960.7031,680.5 960.2344,680.5 C960.0156,680.5 959.8125,680.5781 959.625,680.7656 C959.1719,681.25 959.1719,681.25 958.9844,681.3438 C958.5625,681.6094 957.875,681.7344 957.1094,681.7344 C955.0625,681.7344 953.7656,680.6406 953.7656,678.9375 L953.7656,677.8438 C953.7656,676.0625 955.0156,674.75 956.75,674.75 C957.3281,674.75 957.9375,674.9063 958.4063,675.1563 C958.8906,675.4375 959.0625,675.6563 959.1563,676.0625 C959.2188,676.4688 959.25,676.5938 959.3906,676.7188 C959.5313,676.8594 959.7656,676.9688 959.9844,676.9688 C960.25,676.9688 960.5156,676.8281 960.6875,676.6094 C960.7969,676.4531 960.8281,676.2656 960.8281,675.8438 L960.8281,674.4219 C960.8281,673.9844 960.8125,673.8594 960.7188,673.7031 C960.5625,673.4375 960.2813,673.2969 959.9844,673.2969 C959.6875,673.2969 959.4844,673.3906 959.2656,673.7031 L959.0938,673.625 Z " fill="#000000"/><text fill="#000000" font-family="sans-serif" font-size="12" lengthAdjust="spacing" textLength="196" x="977.25" y="682.1074">HaizolManageRenewNotesQuery</text><line style="stroke:#A80036;stroke-width:1.5;" x1="896" x2="1222" y1="693.9531" y2="693.9531"/><text fill="#000000" font-family="sans-serif" font-size="11" lengthAdjust="spacing" textLength="316" x="901" y="708.1636">HaizolManageNotesMapper haizolManageNotesMapper;</text><line style="stroke:#A80036;stroke-width:1.5;" x1="896" x2="1222" y1="714.7578" y2="714.7578"/><!--MD5=[c964b0a84ba67d959cc334250e009665]
class HaizolManageNotesMapper--><rect fill="#FEFECE" height="48" id="HaizolManageNotesMapper" rx="3.5" ry="3.5" style="stroke:#A80036;stroke-width:1.5;" width="197" x="971.5" y="547.4531"/><ellipse cx="986.5" cy="563.4531" fill="#ADD1B2" rx="11" ry="11" style="stroke:#A80036;stroke-width:1.0;"/><path d="M988.8438,559.125 C987.9063,558.6875 987.3125,558.5469 986.4375,558.5469 C983.8125,558.5469 981.8125,560.625 981.8125,563.3438 L981.8125,564.4688 C981.8125,567.0469 983.9219,568.9375 986.8125,568.9375 C988.0313,568.9375 989.1875,568.6406 989.9375,568.0938 C990.5156,567.6875 990.8438,567.2344 990.8438,566.8438 C990.8438,566.3906 990.4531,566 989.9844,566 C989.7656,566 989.5625,566.0781 989.375,566.2656 C988.9219,566.75 988.9219,566.75 988.7344,566.8438 C988.3125,567.1094 987.625,567.2344 986.8594,567.2344 C984.8125,567.2344 983.5156,566.1406 983.5156,564.4375 L983.5156,563.3438 C983.5156,561.5625 984.7656,560.25 986.5,560.25 C987.0781,560.25 987.6875,560.4063 988.1563,560.6563 C988.6406,560.9375 988.8125,561.1563 988.9063,561.5625 C988.9688,561.9688 989,562.0938 989.1406,562.2188 C989.2813,562.3594 989.5156,562.4688 989.7344,562.4688 C990,562.4688 990.2656,562.3281 990.4375,562.1094 C990.5469,561.9531 990.5781,561.7656 990.5781,561.3438 L990.5781,559.9219 C990.5781,559.4844 990.5625,559.3594 990.4688,559.2031 C990.3125,558.9375 990.0313,558.7969 989.7344,558.7969 C989.4375,558.7969 989.2344,558.8906 989.0156,559.2031 L988.8438,559.125 Z " fill="#000000"/><text fill="#000000" font-family="sans-serif" font-size="12" lengthAdjust="spacing" textLength="165" x="1000.5" y="567.6074">HaizolManageNotesMapper</text><line style="stroke:#A80036;stroke-width:1.5;" x1="972.5" x2="1167.5" y1="579.4531" y2="579.4531"/><line style="stroke:#A80036;stroke-width:1.5;" x1="972.5" x2="1167.5" y1="587.4531" y2="587.4531"/><!--MD5=[a0646f9dc9fef8c35fe59c1854238a3b]
class HaizolManageRenewNotesMapper--><rect fill="#FEFECE" height="48" id="HaizolManageRenewNotesMapper" rx="3.5" ry="3.5" style="stroke:#A80036;stroke-width:1.5;" width="237" x="699.5" y="547.4531"/><ellipse cx="714.5" cy="563.4531" fill="#ADD1B2" rx="11" ry="11" style="stroke:#A80036;stroke-width:1.0;"/><path d="M716.8438,559.125 C715.9063,558.6875 715.3125,558.5469 714.4375,558.5469 C711.8125,558.5469 709.8125,560.625 709.8125,563.3438 L709.8125,564.4688 C709.8125,567.0469 711.9219,568.9375 714.8125,568.9375 C716.0313,568.9375 717.1875,568.6406 717.9375,568.0938 C718.5156,567.6875 718.8438,567.2344 718.8438,566.8438 C718.8438,566.3906 718.4531,566 717.9844,566 C717.7656,566 717.5625,566.0781 717.375,566.2656 C716.9219,566.75 716.9219,566.75 716.7344,566.8438 C716.3125,567.1094 715.625,567.2344 714.8594,567.2344 C712.8125,567.2344 711.5156,566.1406 711.5156,564.4375 L711.5156,563.3438 C711.5156,561.5625 712.7656,560.25 714.5,560.25 C715.0781,560.25 715.6875,560.4063 716.1563,560.6563 C716.6406,560.9375 716.8125,561.1563 716.9063,561.5625 C716.9688,561.9688 717,562.0938 717.1406,562.2188 C717.2813,562.3594 717.5156,562.4688 717.7344,562.4688 C718,562.4688 718.2656,562.3281 718.4375,562.1094 C718.5469,561.9531 718.5781,561.7656 718.5781,561.3438 L718.5781,559.9219 C718.5781,559.4844 718.5625,559.3594 718.4688,559.2031 C718.3125,558.9375 718.0313,558.7969 717.7344,558.7969 C717.4375,558.7969 717.2344,558.8906 717.0156,559.2031 L716.8438,559.125 Z " fill="#000000"/><text fill="#000000" font-family="sans-serif" font-size="12" lengthAdjust="spacing" textLength="205" x="728.5" y="567.6074">HaizolManageRenewNotesMapper</text><line style="stroke:#A80036;stroke-width:1.5;" x1="700.5" x2="935.5" y1="579.4531" y2="579.4531"/><line style="stroke:#A80036;stroke-width:1.5;" x1="700.5" x2="935.5" y1="587.4531" y2="587.4531"/><!--MD5=[83df6dde89c0fd6cffc3ed1436fa58a5]
class AbstractSubscribeMQListener--><rect codeLine="101" fill="#FEFECE" height="48" id="AbstractSubscribeMQListener" rx="3.5" ry="3.5" style="stroke:#A80036;stroke-width:1.5;" width="210" x="2478" y="104.9531"/><ellipse cx="2493" cy="120.9531" fill="#A9DCDF" rx="11" ry="11" style="stroke:#A80036;stroke-width:1.0;"/><path d="M2495.0781,122.7656 L2495.4688,123.75 L2495.0781,123.75 C2494.625,123.75 2494.5156,123.7656 2494.3594,123.875 C2494.1094,124.0313 2493.9531,124.3125 2493.9531,124.6094 C2493.9531,124.875 2494.0938,125.125 2494.3125,125.2813 C2494.4531,125.4063 2494.6563,125.4531 2495.0781,125.4531 L2497.4375,125.4531 C2497.7969,125.4531 2498.0156,125.4219 2498.1563,125.3281 C2498.4063,125.1875 2498.5625,124.8906 2498.5625,124.6094 C2498.5625,124.3281 2498.4219,124.0781 2498.2031,123.9219 C2498.0313,123.7813 2497.875,123.75 2497.4063,123.75 L2494.0156,115.5469 L2490.3438,115.5469 C2489.8906,115.5469 2489.7656,115.5625 2489.6094,115.6563 C2489.3594,115.8281 2489.2031,116.1094 2489.2031,116.3906 C2489.2031,116.6719 2489.3438,116.9219 2489.5625,117.0938 C2489.7344,117.2031 2489.9063,117.2344 2490.3438,117.2344 L2491.4219,117.2344 L2488.7813,123.75 C2488.3594,123.75 2488.2031,123.7656 2488.0469,123.875 C2487.7969,124.0313 2487.6406,124.3125 2487.6406,124.6094 C2487.6406,125.1719 2488.0156,125.4531 2488.7656,125.4531 L2491.0313,125.4531 C2491.3906,125.4531 2491.6094,125.4219 2491.7344,125.3281 C2492,125.1875 2492.1406,124.8906 2492.1406,124.6094 C2492.1406,124.3281 2492.0156,124.0781 2491.7969,123.9063 C2491.625,123.7813 2491.4844,123.75 2491.0313,123.75 L2490.6406,123.75 L2491.0313,122.7656 L2495.0781,122.7656 Z M2494.375,121.0625 L2491.7031,121.0625 L2493.0469,117.7969 L2494.375,121.0625 Z " fill="#000000"/><text fill="#000000" font-family="sans-serif" font-size="12" font-style="italic" lengthAdjust="spacing" textLength="178" x="2507" y="125.1074">AbstractSubscribeMQListener</text><line style="stroke:#A80036;stroke-width:1.5;" x1="2479" x2="2687" y1="136.9531" y2="136.9531"/><line style="stroke:#A80036;stroke-width:1.5;" x1="2479" x2="2687" y1="144.9531" y2="144.9531"/><!--MD5=[98f3561e21f095120e83d1f265182297]
class DataSyncMQListener--><rect codeLine="104" fill="#FEFECE" height="48" id="DataSyncMQListener" rx="3.5" ry="3.5" style="stroke:#A80036;stroke-width:1.5;" width="157" x="2504.5" y="227.9531"/><ellipse cx="2519.5" cy="243.9531" fill="#A9DCDF" rx="11" ry="11" style="stroke:#A80036;stroke-width:1.0;"/><path d="M2521.5781,245.7656 L2521.9688,246.75 L2521.5781,246.75 C2521.125,246.75 2521.0156,246.7656 2520.8594,246.875 C2520.6094,247.0313 2520.4531,247.3125 2520.4531,247.6094 C2520.4531,247.875 2520.5938,248.125 2520.8125,248.2813 C2520.9531,248.4063 2521.1563,248.4531 2521.5781,248.4531 L2523.9375,248.4531 C2524.2969,248.4531 2524.5156,248.4219 2524.6563,248.3281 C2524.9063,248.1875 2525.0625,247.8906 2525.0625,247.6094 C2525.0625,247.3281 2524.9219,247.0781 2524.7031,246.9219 C2524.5313,246.7813 2524.375,246.75 2523.9063,246.75 L2520.5156,238.5469 L2516.8438,238.5469 C2516.3906,238.5469 2516.2656,238.5625 2516.1094,238.6563 C2515.8594,238.8281 2515.7031,239.1094 2515.7031,239.3906 C2515.7031,239.6719 2515.8438,239.9219 2516.0625,240.0938 C2516.2344,240.2031 2516.4063,240.2344 2516.8438,240.2344 L2517.9219,240.2344 L2515.2813,246.75 C2514.8594,246.75 2514.7031,246.7656 2514.5469,246.875 C2514.2969,247.0313 2514.1406,247.3125 2514.1406,247.6094 C2514.1406,248.1719 2514.5156,248.4531 2515.2656,248.4531 L2517.5313,248.4531 C2517.8906,248.4531 2518.1094,248.4219 2518.2344,248.3281 C2518.5,248.1875 2518.6406,247.8906 2518.6406,247.6094 C2518.6406,247.3281 2518.5156,247.0781 2518.2969,246.9063 C2518.125,246.7813 2517.9844,246.75 2517.5313,246.75 L2517.1406,246.75 L2517.5313,245.7656 L2521.5781,245.7656 Z M2520.875,244.0625 L2518.2031,244.0625 L2519.5469,240.7969 L2520.875,244.0625 Z " fill="#000000"/><text fill="#000000" font-family="sans-serif" font-size="12" font-style="italic" lengthAdjust="spacing" textLength="125" x="2533.5" y="248.1074">DataSyncMQListener</text><line style="stroke:#A80036;stroke-width:1.5;" x1="2505.5" x2="2660.5" y1="259.9531" y2="259.9531"/><line style="stroke:#A80036;stroke-width:1.5;" x1="2505.5" x2="2660.5" y1="267.9531" y2="267.9531"/><!--MD5=[dd24e9ffc1bd7c5c76a14fb28e73eed2]
class AbstractDataSyncMQListener--><rect codeLine="107" fill="#FEFECE" height="48" id="AbstractDataSyncMQListener" rx="3.5" ry="3.5" style="stroke:#A80036;stroke-width:1.5;" width="208" x="2479" y="400.4531"/><ellipse cx="2494" cy="416.4531" fill="#A9DCDF" rx="11" ry="11" style="stroke:#A80036;stroke-width:1.0;"/><path d="M2496.0781,418.2656 L2496.4688,419.25 L2496.0781,419.25 C2495.625,419.25 2495.5156,419.2656 2495.3594,419.375 C2495.1094,419.5313 2494.9531,419.8125 2494.9531,420.1094 C2494.9531,420.375 2495.0938,420.625 2495.3125,420.7813 C2495.4531,420.9063 2495.6563,420.9531 2496.0781,420.9531 L2498.4375,420.9531 C2498.7969,420.9531 2499.0156,420.9219 2499.1563,420.8281 C2499.4063,420.6875 2499.5625,420.3906 2499.5625,420.1094 C2499.5625,419.8281 2499.4219,419.5781 2499.2031,419.4219 C2499.0313,419.2813 2498.875,419.25 2498.4063,419.25 L2495.0156,411.0469 L2491.3438,411.0469 C2490.8906,411.0469 2490.7656,411.0625 2490.6094,411.1563 C2490.3594,411.3281 2490.2031,411.6094 2490.2031,411.8906 C2490.2031,412.1719 2490.3438,412.4219 2490.5625,412.5938 C2490.7344,412.7031 2490.9063,412.7344 2491.3438,412.7344 L2492.4219,412.7344 L2489.7813,419.25 C2489.3594,419.25 2489.2031,419.2656 2489.0469,419.375 C2488.7969,419.5313 2488.6406,419.8125 2488.6406,420.1094 C2488.6406,420.6719 2489.0156,420.9531 2489.7656,420.9531 L2492.0313,420.9531 C2492.3906,420.9531 2492.6094,420.9219 2492.7344,420.8281 C2493,420.6875 2493.1406,420.3906 2493.1406,420.1094 C2493.1406,419.8281 2493.0156,419.5781 2492.7969,419.4063 C2492.625,419.2813 2492.4844,419.25 2492.0313,419.25 L2491.6406,419.25 L2492.0313,418.2656 L2496.0781,418.2656 Z M2495.375,416.5625 L2492.7031,416.5625 L2494.0469,413.2969 L2495.375,416.5625 Z " fill="#000000"/><text fill="#000000" font-family="sans-serif" font-size="12" font-style="italic" lengthAdjust="spacing" textLength="176" x="2508" y="420.6074">AbstractDataSyncMQListener</text><line style="stroke:#A80036;stroke-width:1.5;" x1="2480" x2="2686" y1="432.4531" y2="432.4531"/><line style="stroke:#A80036;stroke-width:1.5;" x1="2480" x2="2686" y1="440.4531" y2="440.4531"/><!--MD5=[fcca056ce4c7932f76b627faa5411ee9]
class HaizolGroupMQListener--><rect fill="#FEFECE" height="48" id="HaizolGroupMQListener" rx="3.5" ry="3.5" style="stroke:#A80036;stroke-width:1.5;" width="174" x="2496" y="547.4531"/><ellipse cx="2511" cy="563.4531" fill="#ADD1B2" rx="11" ry="11" style="stroke:#A80036;stroke-width:1.0;"/><path d="M2513.3438,559.125 C2512.4063,558.6875 2511.8125,558.5469 2510.9375,558.5469 C2508.3125,558.5469 2506.3125,560.625 2506.3125,563.3438 L2506.3125,564.4688 C2506.3125,567.0469 2508.4219,568.9375 2511.3125,568.9375 C2512.5313,568.9375 2513.6875,568.6406 2514.4375,568.0938 C2515.0156,567.6875 2515.3438,567.2344 2515.3438,566.8438 C2515.3438,566.3906 2514.9531,566 2514.4844,566 C2514.2656,566 2514.0625,566.0781 2513.875,566.2656 C2513.4219,566.75 2513.4219,566.75 2513.2344,566.8438 C2512.8125,567.1094 2512.125,567.2344 2511.3594,567.2344 C2509.3125,567.2344 2508.0156,566.1406 2508.0156,564.4375 L2508.0156,563.3438 C2508.0156,561.5625 2509.2656,560.25 2511,560.25 C2511.5781,560.25 2512.1875,560.4063 2512.6563,560.6563 C2513.1406,560.9375 2513.3125,561.1563 2513.4063,561.5625 C2513.4688,561.9688 2513.5,562.0938 2513.6406,562.2188 C2513.7813,562.3594 2514.0156,562.4688 2514.2344,562.4688 C2514.5,562.4688 2514.7656,562.3281 2514.9375,562.1094 C2515.0469,561.9531 2515.0781,561.7656 2515.0781,561.3438 L2515.0781,559.9219 C2515.0781,559.4844 2515.0625,559.3594 2514.9688,559.2031 C2514.8125,558.9375 2514.5313,558.7969 2514.2344,558.7969 C2513.9375,558.7969 2513.7344,558.8906 2513.5156,559.2031 L2513.3438,559.125 Z " fill="#000000"/><text fill="#000000" font-family="sans-serif" font-size="12" lengthAdjust="spacing" textLength="142" x="2525" y="567.6074">HaizolGroupMQListener</text><line style="stroke:#A80036;stroke-width:1.5;" x1="2497" x2="2669" y1="579.4531" y2="579.4531"/><line style="stroke:#A80036;stroke-width:1.5;" x1="2497" x2="2669" y1="587.4531" y2="587.4531"/><!--MD5=[1dc26bffd5165c821fc86792daa39d58]
reverse link ClassA to ClassB--><path codeLine="7" d="M2359.5,173.1351 C2359.5,173.1351 2359.5,400.3511 2359.5,400.3511 " fill="none" id="ClassA-backto-ClassB" style="stroke:#191919;stroke-width:1.0;"/><polygon fill="none" points="2352.5,173.1351,2359.5,153.1351,2366.5,173.1351,2352.5,173.1351" style="stroke:#191919;stroke-width:1.0;"/><text fill="#000000" font-family="sans-serif" font-size="13" lengthAdjust="spacing" textLength="26" x="2332.5" y="299.81"></text><!--MD5=[16a0d57f5f0f6fdf78e2d4bde251268b]
reverse link ClassC to ClassD--><path codeLine="9" d="M2288.75,295.9671 C2288.75,295.9671 2288.75,540.7141 2288.75,540.7141 " fill="none" id="ClassC-backto-ClassD" style="stroke:#191919;stroke-width:1.0;stroke-dasharray:7.0,7.0;"/><polygon fill="none" points="2281.75,295.9671,2288.75,275.9671,2295.75,295.9671,2281.75,295.9671" style="stroke:#191919;stroke-width:1.0;"/><text fill="#000000" font-family="sans-serif" font-size="13" lengthAdjust="spacing" textLength="26" x="2261.75" y="414.408"></text><!--MD5=[e8b6760f7e873e83da034d232b6cbb7c]
reverse link ClassB to ClassD--><path codeLine="11" d="M2342.25,461.7271 C2342.25,461.7271 2342.25,540.7571 2342.25,540.7571 " fill="none" id="ClassB-backto-ClassD" style="stroke:#191919;stroke-width:1.0;"/><polygon fill="#191919" points="2342.25,448.7271,2338.25,454.7271,2342.25,460.7271,2346.25,454.7271,2342.25,448.7271" style="stroke:#191919;stroke-width:1.0;"/><text fill="#000000" font-family="sans-serif" font-size="13" lengthAdjust="spacing" textLength="26" x="2315.25" y="497.309"></text><!--MD5=[da6d580cb34bf17a9e68745df5746478]
reverse link EsSyncWebservice to BaseSyncController--><path d="M136.25,172.9611 C136.25,172.9611 136.25,221.0011 136.25,221.0011 " fill="none" id="EsSyncWebservice-backto-BaseSyncController" style="stroke:#191919;stroke-width:1.0;stroke-dasharray:7.0,7.0;"/><polygon fill="none" points="129.25,172.9611,136.25,152.9611,143.25,172.9611,129.25,172.9611" style="stroke:#191919;stroke-width:1.0;"/><!--MD5=[5ebf8b8083898dad8ecad10e55062212]
reverse link HaizolQuery to AbstractHaizolQuery--><path d="M439.25,172.9611 C439.25,172.9611 439.25,221.0011 439.25,221.0011 " fill="none" id="HaizolQuery-backto-AbstractHaizolQuery" style="stroke:#191919;stroke-width:1.0;stroke-dasharray:7.0,7.0;"/><polygon fill="none" points="432.25,172.9611,439.25,152.9611,446.25,172.9611,432.25,172.9611" style="stroke:#191919;stroke-width:1.0;"/><!--MD5=[04760abf7069600ec6bd03fafd4a5076]
reverse link HaizolHandlerThreadWorker to AbstractHaizolQuery--><path d="M610,172.9611 C610,172.9611 610,221.0011 610,221.0011 " fill="none" id="HaizolHandlerThreadWorker-backto-AbstractHaizolQuery" style="stroke:#191919;stroke-width:1.0;stroke-dasharray:7.0,7.0;"/><polygon fill="none" points="603,172.9611,610,152.9611,617,172.9611,603,172.9611" style="stroke:#191919;stroke-width:1.0;"/><!--MD5=[f6f1b3db377156689400fc9ac9c08c35]
reverse link SmartInitializingSingleton to AbstractHaizolQuery--><path d="M832.75,172.9611 C832.75,172.9611 832.75,221.0011 832.75,221.0011 " fill="none" id="SmartInitializingSingleton-backto-AbstractHaizolQuery" style="stroke:#191919;stroke-width:1.0;stroke-dasharray:7.0,7.0;"/><polygon fill="none" points="825.75,172.9611,832.75,152.9611,839.75,172.9611,825.75,172.9611" style="stroke:#191919;stroke-width:1.0;"/><!--MD5=[391d4150473b74d0de0d86de6461de3f]
reverse link FullIndexModel to HaizolManageNotesModel--><path codeLine="52" d="M2036,173.1351 C2036,173.1351 2036,400.3511 2036,400.3511 " fill="none" id="FullIndexModel-backto-HaizolManageNotesModel" style="stroke:#191919;stroke-width:1.0;"/><polygon fill="none" points="2029,173.1351,2036,153.1351,2043,173.1351,2029,173.1351" style="stroke:#191919;stroke-width:1.0;"/><!--MD5=[c1d27af84d92e21a958152f3a6e591b9]
reverse link BaseSyncController to AbstractBaseSyncController--><path d="M290.25,302.7931 C290.25,302.7931 290.25,393.8801 290.25,393.8801 " fill="none" id="BaseSyncController-backto-AbstractBaseSyncController" style="stroke:#191919;stroke-width:1.0;"/><polygon fill="none" points="283.25,302.7931,290.25,282.7931,297.25,302.7931,283.25,302.7931" style="stroke:#191919;stroke-width:1.0;"/><!--MD5=[1cd1e8ad8a1280b7ca5d4cf9501284a5]
reverse link EsSyncHandler to AbstractEsSyncHandlerWorker--><path d="M1708,173.1351 C1708,173.1351 1708,393.8301 1708,393.8301 " fill="none" id="EsSyncHandler-backto-AbstractEsSyncHandlerWorker" style="stroke:#191919;stroke-width:1.0;"/><polygon fill="none" points="1701,173.1351,1708,153.1351,1715,173.1351,1701,173.1351" style="stroke:#191919;stroke-width:1.0;"/><!--MD5=[3cac65f110a9e5d79f57af7b6cf80ad0]
reverse link AbstractHaizolQuery to AbstractHaizolQueryWorker--><path d="M941.05,251.9531 C941.05,251.9531 1146.75,251.9531 1146.75,251.9531 C1146.75,251.9531 1146.75,343.9961 1146.75,393.6131 " fill="none" id="AbstractHaizolQuery-backto-AbstractHaizolQueryWorker" style="stroke:#191919;stroke-width:1.0;"/><polygon fill="none" points="941.05,258.9531,921.05,251.9531,941.05,244.9531,941.05,258.9531" style="stroke:#191919;stroke-width:1.0;"/><!--MD5=[b9106419ac8b445d04cceb555738e443]
reverse link FullIndexQuery to AbstractHaizolQueryWorker--><path d="M1367.75,173.1351 C1367.75,173.1351 1367.75,393.8301 1367.75,393.8301 " fill="none" id="FullIndexQuery-backto-AbstractHaizolQueryWorker" style="stroke:#191919;stroke-width:1.0;stroke-dasharray:7.0,7.0;"/><polygon fill="none" points="1360.75,173.1351,1367.75,153.1351,1374.75,173.1351,1360.75,173.1351" style="stroke:#191919;stroke-width:1.0;"/><!--MD5=[b912ede5f8b3e0a47c72f8dcaf8e77fe]
reverse link HaizolSyncBaseMapper to AbstractHaizolSyncBaseMapperWorker--><path d="M1061.75,173.0121 C1061.75,173.0121 1061.75,416.9531 1061.75,416.9531 C1061.75,416.9531 1054.43,416.9531 1042.39,416.9531 " fill="none" id="HaizolSyncBaseMapper-backto-AbstractHaizolSyncBaseMapperWorker" style="stroke:#191919;stroke-width:1.0;"/><polygon fill="none" points="1054.75,173.0121,1061.75,153.0121,1068.75,173.0121,1054.75,173.0121" style="stroke:#191919;stroke-width:1.0;"/><!--MD5=[5bb51b49938b1c1c3826579732fa752c]
link AbstractEsSyncHandlerWorker to AbstractBaseSyncController--><path codeLine="68" d="M1525.25,393.5861 C1525.25,369.0951 1525.25,338.9531 1525.25,338.9531 C1525.25,338.9531 492.75,338.9531 492.75,338.9531 C492.75,338.9531 492.75,380.5861 492.75,380.5861 " fill="none" id="AbstractEsSyncHandlerWorker-to-AbstractBaseSyncController" style="stroke:#0000FF;stroke-width:1.0;"/><polygon fill="#0000FF" points="492.75,393.5861,496.75,387.5861,492.75,381.5861,488.75,387.5861,492.75,393.5861" style="stroke:#0000FF;stroke-width:1.0;"/><!--MD5=[4f90ded0c7c49c7753128f764eb04c30]
link AbstractHaizolQueryWorker to AbstractEsSyncHandlerWorker--><path codeLine="69" d="M1484.81,424.9531 C1484.81,424.9531 1506.23,424.9531 1506.23,424.9531 " fill="none" id="AbstractHaizolQueryWorker-to-AbstractEsSyncHandlerWorker" style="stroke:#0000FF;stroke-width:1.0;"/><polygon fill="#0000FF" points="1519.23,424.9531,1513.23,420.9531,1507.23,424.9531,1513.23,428.9531,1519.23,424.9531" style="stroke:#0000FF;stroke-width:1.0;"/><!--MD5=[bbf642dff5bc39e66b1b57412d708715]
link AbstractHaizolSyncBaseMapperWorker to AbstractHaizolQueryWorker--><path codeLine="70" d="M1042.29,432.9531 C1042.29,432.9531 1064.27,432.9531 1064.27,432.9531 " fill="none" id="AbstractHaizolSyncBaseMapperWorker-to-AbstractHaizolQueryWorker" style="stroke:#0000FF;stroke-width:1.0;"/><polygon fill="#0000FF" points="1077.27,432.9531,1071.27,428.9531,1065.27,432.9531,1071.27,436.9531,1077.27,432.9531" style="stroke:#0000FF;stroke-width:1.0;"/><!--MD5=[008579d177d6b1873fd62ed6846907b5]
reverse link AbstractBaseSyncController to HaizolManageNotesController--><path codeLine="77" d="M518.25,475.2691 C518.25,475.2691 518.25,546.9961 518.25,546.9961 " fill="none" id="AbstractBaseSyncController-backto-HaizolManageNotesController" style="stroke:#191919;stroke-width:1.0;"/><polygon fill="none" points="511.25,475.2691,518.25,455.2691,525.25,475.2691,511.25,475.2691" style="stroke:#191919;stroke-width:1.0;"/><!--MD5=[6d9bdf7994b46bcf5612f503576d988a]
reverse link AbstractEsSyncHandlerWorker to HaizolManageNotesHandler--><path codeLine="78" d="M1708,475.1581 C1708,475.1581 1708,819.9531 1708,819.9531 C1708,819.9531 1424.24,819.9531 1223.06,819.9531 " fill="none" id="AbstractEsSyncHandlerWorker-backto-HaizolManageNotesHandler" style="stroke:#191919;stroke-width:1.0;"/><polygon fill="none" points="1701,475.1581,1708,455.1581,1715,475.1581,1701,475.1581" style="stroke:#191919;stroke-width:1.0;"/><!--MD5=[d361a4bfb24cb6384a1cfe297a565993]
link HaizolManageNotesQuery to HaizolManageNotesHandler--><path codeLine="82" d="M845.5,722.9921 C845.5,722.9921 845.5,769.8421 845.5,769.8421 " fill="none" id="HaizolManageNotesQuery-to-HaizolManageNotesHandler" style="stroke:#0000FF;stroke-width:1.0;"/><polygon fill="#0000FF" points="845.5,782.8421,849.5,776.8421,845.5,770.8421,841.5,776.8421,845.5,782.8421" style="stroke:#0000FF;stroke-width:1.0;"/><!--MD5=[1aa1c61f9b8c75b990054ffa6d151272]
link HaizolManageRenewNotesQuery to HaizolManageNotesHandler--><path codeLine="83" d="M1059,722.9921 C1059,722.9921 1059,769.8421 1059,769.8421 " fill="none" id="HaizolManageRenewNotesQuery-to-HaizolManageNotesHandler" style="stroke:#0000FF;stroke-width:1.0;"/><polygon fill="#0000FF" points="1059,782.8421,1063,776.8421,1059,770.8421,1055,776.8421,1059,782.8421" style="stroke:#0000FF;stroke-width:1.0;"/><!--MD5=[14439a0d02ec97070d164bd74fb67297]
reverse link AbstractHaizolQueryWorker to HaizolManageRenewNotesQuery--><path codeLine="85" d="M1204.83,475.1961 C1204.83,475.1961 1204.83,661.6571 1204.83,661.6571 " fill="none" id="AbstractHaizolQueryWorker-backto-HaizolManageRenewNotesQuery" style="stroke:#191919;stroke-width:1.0;"/><polygon fill="none" points="1197.83,475.1961,1204.83,455.1961,1211.83,475.1961,1197.83,475.1961" style="stroke:#191919;stroke-width:1.0;"/><!--MD5=[585d64e7729c32e7b0bc12480380708c]
reverse link AbstractHaizolSyncBaseMapperWorker to HaizolManageNotesMapper--><path codeLine="87" d="M1006.75,468.7271 C1006.75,468.7271 1006.75,547.1431 1006.75,547.1431 " fill="none" id="AbstractHaizolSyncBaseMapperWorker-backto-HaizolManageNotesMapper" style="stroke:#191919;stroke-width:1.0;"/><polygon fill="none" points="999.75,468.7271,1006.75,448.7271,1013.75,468.7271,999.75,468.7271" style="stroke:#191919;stroke-width:1.0;"/><!--MD5=[f71930478665fd16312e0fc4ddad66ea]
link HaizolManageNotesMapper to HaizolManageRenewNotesQuery--><path codeLine="90" d="M1070,595.6481 C1070,595.6481 1070,648.8441 1070,648.8441 " fill="none" id="HaizolManageNotesMapper-to-HaizolManageRenewNotesQuery" style="stroke:#0000FF;stroke-width:1.0;"/><polygon fill="#0000FF" points="1070,661.8441,1074,655.8441,1070,649.8441,1066,655.8441,1070,661.8441" style="stroke:#0000FF;stroke-width:1.0;"/><!--MD5=[61cd70813fe89ec0870be861ba3416d5]
reverse link AbstractHaizolQueryWorker to HaizolManageNotesQuery--><path codeLine="92" d="M1186.67,475.0701 C1186.67,475.0701 1186.67,631.9531 1186.67,631.9531 C1186.67,631.9531 806.5,631.9531 806.5,631.9531 C806.5,631.9531 806.5,646.8431 806.5,661.8491 " fill="none" id="AbstractHaizolQueryWorker-backto-HaizolManageNotesQuery" style="stroke:#191919;stroke-width:1.0;"/><polygon fill="none" points="1179.67,475.0701,1186.67,455.0701,1193.67,475.0701,1179.67,475.0701" style="stroke:#191919;stroke-width:1.0;"/><!--MD5=[9b51ffaf330883f62398c17b1c3b40fd]
reverse link AbstractHaizolSyncBaseMapperWorker to HaizolManageRenewNotesMapper--><path codeLine="94" d="M818,468.7271 C818,468.7271 818,547.1431 818,547.1431 " fill="none" id="AbstractHaizolSyncBaseMapperWorker-backto-HaizolManageRenewNotesMapper" style="stroke:#191919;stroke-width:1.0;"/><polygon fill="none" points="811,468.7271,818,448.7271,825,468.7271,811,468.7271" style="stroke:#191919;stroke-width:1.0;"/><!--MD5=[9841f707502c18825b4bdc440486db72]
link HaizolManageRenewNotesMapper to HaizolManageNotesQuery--><path codeLine="97" d="M753,595.6481 C753,595.6481 753,648.8441 753,648.8441 " fill="none" id="HaizolManageRenewNotesMapper-to-HaizolManageNotesQuery" style="stroke:#0000FF;stroke-width:1.0;"/><polygon fill="#0000FF" points="753,661.8441,757,655.8441,753,649.8441,749,655.8441,753,661.8441" style="stroke:#0000FF;stroke-width:1.0;"/><!--MD5=[62a5d2fb4648232d9a6f9b8a05750a16]
reverse link AbstractSubscribeMQListener to DataSyncMQListener--><path d="M2583,172.9611 C2583,172.9611 2583,227.5861 2583,227.5861 " fill="none" id="AbstractSubscribeMQListener-backto-DataSyncMQListener" style="stroke:#191919;stroke-width:1.0;"/><polygon fill="none" points="2576,172.9611,2583,152.9611,2590,172.9611,2576,172.9611" style="stroke:#191919;stroke-width:1.0;"/><!--MD5=[fdb8c38d8c95a80bab21ca87756ad167]
reverse link DataSyncMQListener to AbstractDataSyncMQListener--><path d="M2583,296.3021 C2583,296.3021 2583,400.2281 2583,400.2281 " fill="none" id="DataSyncMQListener-backto-AbstractDataSyncMQListener" style="stroke:#191919;stroke-width:1.0;"/><polygon fill="none" points="2576,296.3021,2583,276.3021,2590,296.3021,2576,296.3021" style="stroke:#191919;stroke-width:1.0;"/><!--MD5=[49ce1dea8313dd1624ac19cf2fdda741]
reverse link AbstractDataSyncMQListener to HaizolGroupMQListener--><path codeLine="108" d="M2583,468.7271 C2583,468.7271 2583,547.1431 2583,547.1431 " fill="none" id="AbstractDataSyncMQListener-backto-HaizolGroupMQListener" style="stroke:#191919;stroke-width:1.0;"/><polygon fill="none" points="2576,468.7271,2583,448.7271,2590,468.7271,2576,468.7271" style="stroke:#191919;stroke-width:1.0;"/><!--MD5=[18ea07ea4e38eaf1932fb3a7e60ccc2d]
@startuml
!theme mars
title haizol-es-data-sync Class diagram
skinparam linetype ortho

package explain{
	
	ClassA <|- - - ClassB : 
	interface ClassC
	ClassC <|... ClassD : 
	ClassD : - ClassB classB;
	ClassB *- - ClassD : 
}

package com.haizol.es.data.common.sync {
	package com.haizol.es.data.common.sync.model{
		class FullIndexModel
	}
	package org.springframework.beans.factory{
		interface SmartInitializingSingleton
	}
	interface FullIndexQuery<T extends FullIndexModel>
	interface HaizolHandlerThreadWorker
	interface HaizolSyncBaseMapper
	abstract class BaseSyncController implements EsSyncWebservice{}
	abstract class BaseSyncController {
	   # EsSyncHandler<?> currentSyncHandler();
	}
	
	abstract class EsSyncHandler<M extends FullIndexModel> {
	   ' - RestHighLevelClient highLevelClient;    
	   ' - ApplicationContext applicationContext;
	   ' + String prefixName();
	   ' + String getMapping();
	}
	
	interface HaizolQuery<M extends FullIndexModel> {
		'List<M> doWork(Supplier<List<M>> supplier);
		'void doWorkAfter(List<M> datas);
		'void doWorkBefore(List<M> datas);
		'List<M> listModels(IndexSyncBatchModel batchModel);
	}
	
	abstract class AbstractHaizolQuery<M extends FullIndexModel> implements HaizolQuery,HaizolHandlerThreadWorker,SmartInitializingSingleton{
		# protected List<Function<Map<String, M>, CompletableFuture<Void>>> dataServices;
	}
	'EsSyncHandler *-[#blue]- BaseSyncController
}


package com.haizol.data.sync{
	package com.haizol.data.sync.entity{
		HaizolManageNotesModel -up-|> FullIndexModel
	}	

	abstract class AbstractBaseSyncController<M extends FullIndexModel> extends BaseSyncController  {
		- AbstractEsSyncHandlerWorker<M> handler;
	}
	abstract class AbstractEsSyncHandlerWorker<M extends FullIndexModel> extends EsSyncHandler{
		- List<AbstractHaizolQueryWorker<T>> queryWorkers;
	}
	abstract class AbstractHaizolQueryWorker<M extends FullIndexModel> extends AbstractHaizolQuery	implements FullIndexQuery {
		- List<AbstractHaizolSyncBaseMapperWorker<M>> mapperWorkers;
	}
	interface AbstractHaizolSyncBaseMapperWorker<M extends FullIndexModel> extends HaizolSyncBaseMapper{
	}
	
	'
	AbstractEsSyncHandlerWorker	-right[#blue]-*	AbstractBaseSyncController
	AbstractHaizolQueryWorker	-right[#blue]-*	AbstractEsSyncHandlerWorker
	AbstractHaizolSyncBaseMapperWorker	-right[#blue]-*	AbstractHaizolQueryWorker
	
	
}

package sample{
	
	AbstractBaseSyncController <|- - HaizolManageNotesController
	AbstractEsSyncHandlerWorker <|- - HaizolManageNotesHandler
	HaizolManageNotesHandler : HaizolManageNotesQuery haizolManageNotesQuery;
	HaizolManageNotesHandler : HaizolManageRenewNotesQuery haizolManageRenewNotesQuery;
	'  A  B
	HaizolManageNotesHandler *-up[#blue]- HaizolManageNotesQuery
	HaizolManageNotesHandler *-up[#blue]- HaizolManageRenewNotesQuery
	
	AbstractHaizolQueryWorker <|- - HaizolManageRenewNotesQuery
	HaizolManageRenewNotesQuery	:	HaizolManageNotesMapper haizolManageNotesMapper;
	AbstractHaizolSyncBaseMapperWorker <|- - HaizolManageNotesMapper
	
	'
	HaizolManageRenewNotesQuery *-up[#blue]- HaizolManageNotesMapper
	
	AbstractHaizolQueryWorker <|- - HaizolManageNotesQuery
	HaizolManageNotesQuery	:	HaizolManageRenewNotesMapper haizolManageRenewNotesMapper;
	AbstractHaizolSyncBaseMapperWorker <|- - HaizolManageRenewNotesMapper
	
	'
	HaizolManageNotesQuery *-up[#blue]- HaizolManageRenewNotesMapper
	
}
package com.haizol.common.system.mq{
	abstract class AbstractSubscribeMQListener
}
package com.haizol.es.data.common.sync.mq{
	abstract class DataSyncMQListener extends AbstractSubscribeMQListener  
}
package com.haizol.data.sync.mq{
	abstract class AbstractDataSyncMQListener extends DataSyncMQListener {}
	AbstractDataSyncMQListener <|- - HaizolGroupMQListener
}
@enduml

@startuml
skinparam BackgroundColor F9F9F9
skinparam shadowing false
skinparam RoundCorner 7
skinparam ArrowColor 191919
skinparam FontColor 191919
skinparam SequenceLifeLineBorderColor 393939
skinparam SequenceGroupHeaderFontColor 191919
skinparam SequenceGroupFontColor 393939
skinparam SequenceGroupBorderColor 393939
skinparam SequenceGroupBorderThickness 1

skinparam sequenceDivider {
    BorderColor 191919
    BorderThickness 1
    FontColor 191919
}

skinparam participant {
    BackgroundColor E55756
    BorderColor 191919
    FontColor F9F9F9
    BorderThickness 1.5
}

skinparam database {
    BackgroundColor A4DBD8
    BorderColor 191919
    FontColor 191919
}

skinparam entity {
    BackgroundColor EFBABC
    BorderColor 191919
    FontColor 191919
}

skinparam note {
    BackgroundColor e5e5e5
    BorderColor 191919
    FontColor 191919
    BorderThickness 1.5
}

skinparam actor {
    BackgroundColor 191919
    BorderColor 191919
    FontColor 191919
}

skinparam boundary {
    BackgroundColor EFBABC
    BorderColor 191919
    FontColor 191919
}

skinparam control {
    BackgroundColor EFBABC
    BorderColor 191919
    FontColor 191919
}

skinparam collections {
    BackgroundColor E55756
    BorderColor 191919
    FontColor 191919
    BorderThickness 1.5
}

skinparam queue {
    BackgroundColor E55756
    BorderColor 191919
    FontColor FFF
    BorderThickness 1.5
}
title haizol-es-data-sync Class diagram
skinparam linetype ortho

package explain{
	
	ClassA <|- - - ClassB : 
	interface ClassC
	ClassC <|... ClassD : 
	ClassD : - ClassB classB;
	ClassB *- - ClassD : 
}

package com.haizol.es.data.common.sync {
	package com.haizol.es.data.common.sync.model{
		class FullIndexModel
	}
	package org.springframework.beans.factory{
		interface SmartInitializingSingleton
	}
	interface FullIndexQuery<T extends FullIndexModel>
	interface HaizolHandlerThreadWorker
	interface HaizolSyncBaseMapper
	abstract class BaseSyncController implements EsSyncWebservice{}
	abstract class BaseSyncController {
	   # EsSyncHandler<?> currentSyncHandler();
	}
	
	abstract class EsSyncHandler<M extends FullIndexModel> {
	}
	
	interface HaizolQuery<M extends FullIndexModel> {
	}
	
	abstract class AbstractHaizolQuery<M extends FullIndexModel> implements HaizolQuery,HaizolHandlerThreadWorker,SmartInitializingSingleton{
		# protected List<Function<Map<String, M>, CompletableFuture<Void>>> dataServices;
	}
}


package com.haizol.data.sync{
	package com.haizol.data.sync.entity{
		HaizolManageNotesModel -up-|> FullIndexModel
	}	

	abstract class AbstractBaseSyncController<M extends FullIndexModel> extends BaseSyncController  {
		- AbstractEsSyncHandlerWorker<M> handler;
	}
	abstract class AbstractEsSyncHandlerWorker<M extends FullIndexModel> extends EsSyncHandler{
		- List<AbstractHaizolQueryWorker<T>> queryWorkers;
	}
	abstract class AbstractHaizolQueryWorker<M extends FullIndexModel> extends AbstractHaizolQuery	implements FullIndexQuery {
		- List<AbstractHaizolSyncBaseMapperWorker<M>> mapperWorkers;
	}
	interface AbstractHaizolSyncBaseMapperWorker<M extends FullIndexModel> extends HaizolSyncBaseMapper{
	}
	
	AbstractEsSyncHandlerWorker	-right[#blue]-*	AbstractBaseSyncController
	AbstractHaizolQueryWorker	-right[#blue]-*	AbstractEsSyncHandlerWorker
	AbstractHaizolSyncBaseMapperWorker	-right[#blue]-*	AbstractHaizolQueryWorker
	
	
}

package sample{
	
	AbstractBaseSyncController <|- - HaizolManageNotesController
	AbstractEsSyncHandlerWorker <|- - HaizolManageNotesHandler
	HaizolManageNotesHandler : HaizolManageNotesQuery haizolManageNotesQuery;
	HaizolManageNotesHandler : HaizolManageRenewNotesQuery haizolManageRenewNotesQuery;
	HaizolManageNotesHandler *-up[#blue]- HaizolManageNotesQuery
	HaizolManageNotesHandler *-up[#blue]- HaizolManageRenewNotesQuery
	
	AbstractHaizolQueryWorker <|- - HaizolManageRenewNotesQuery
	HaizolManageRenewNotesQuery	:	HaizolManageNotesMapper haizolManageNotesMapper;
	AbstractHaizolSyncBaseMapperWorker <|- - HaizolManageNotesMapper
	
	HaizolManageRenewNotesQuery *-up[#blue]- HaizolManageNotesMapper
	
	AbstractHaizolQueryWorker <|- - HaizolManageNotesQuery
	HaizolManageNotesQuery	:	HaizolManageRenewNotesMapper haizolManageRenewNotesMapper;
	AbstractHaizolSyncBaseMapperWorker <|- - HaizolManageRenewNotesMapper
	
	HaizolManageNotesQuery *-up[#blue]- HaizolManageRenewNotesMapper
	
}
package com.haizol.common.system.mq{
	abstract class AbstractSubscribeMQListener
}
package com.haizol.es.data.common.sync.mq{
	abstract class DataSyncMQListener extends AbstractSubscribeMQListener  
}
package com.haizol.data.sync.mq{
	abstract class AbstractDataSyncMQListener extends DataSyncMQListener {}
	AbstractDataSyncMQListener <|- - HaizolGroupMQListener
}
@enduml

PlantUML version 1.2021.17beta4(Unknown compile time)
(GPL source distribution)
Java Runtime: Java(TM) SE Runtime Environment
JVM: Java HotSpot(TM) 64-Bit Server VM
Default Encoding: UTF-8
Language: en
Country: US
--></g></svg>